<svg width="100%" height="100%" style="overflow:visible;" preserveAspectRatio="none" viewBox="0 0 36 36" fill="none" xmlns="http://www.w3.org/2000/svg"><rect width="36" height="36" rx="6" fill="#F2F2F2"/><path d="M24.4545 20.9566C24.2231 20.9566 23.9968 20.887 23.8044 20.7566C23.6119 20.6261 23.4619 20.4407 23.3734 20.2238C23.2848 20.0069 23.2616 19.7682 23.3068 19.538C23.3519 19.3077 23.4634 19.0962 23.627 18.9302C23.7907 18.7642 23.9992 18.6511 24.2262 18.6053C24.4532 18.5595 24.6885 18.583 24.9023 18.6729C25.1162 18.7627 25.2989 18.9149 25.4275 19.1101C25.5561 19.3053 25.6247 19.5348 25.6247 19.7696C25.6247 20.0844 25.5014 20.3863 25.282 20.6089C25.0625 20.8315 24.7649 20.9566 24.4545 20.9566ZM11.5699 20.9566C11.3384 20.9566 11.1122 20.887 10.9197 20.7566C10.7273 20.6261 10.5773 20.4407 10.4887 20.2238C10.4002 20.0069 10.377 19.7682 10.4221 19.538C10.4673 19.3077 10.5787 19.0962 10.7424 18.9302C10.9061 18.7642 11.1146 18.6511 11.3416 18.6053C11.5686 18.5595 11.8039 18.583 12.0177 18.6729C12.2315 18.7627 12.4143 18.9149 12.5429 19.1101C12.6715 19.3053 12.7401 19.5348 12.7401 19.7696C12.7401 20.0844 12.6168 20.3863 12.3973 20.6089C12.1779 20.8315 11.8802 20.9566 11.5699 20.9566ZM24.869 13.8343L27.2094 9.74145C27.241 9.68541 27.2613 9.62359 27.2693 9.55954C27.2773 9.4955 27.2727 9.43049 27.2558 9.36825C27.2389 9.30601 27.2101 9.24777 27.1709 9.19687C27.1318 9.14597 27.0831 9.10342 27.0277 9.07166C26.9723 9.0399 26.9113 9.01955 26.8481 9.01179C26.7849 9.00402 26.7209 9.009 26.6596 9.02643C26.5983 9.04385 26.541 9.07339 26.491 9.11334C26.4411 9.15329 26.3994 9.20286 26.3683 9.25921L24.0035 13.4015C22.1253 12.5309 20.0833 12.0837 18.0183 12.0908C15.9508 12.0857 13.9061 12.5283 12.0209 13.3892L9.65607 9.24684C9.59269 9.13437 9.48798 9.05193 9.36484 9.01756C9.2417 8.98319 9.11015 8.99968 8.99897 9.06343C8.88779 9.12718 8.80602 9.23299 8.77153 9.35773C8.73705 9.48247 8.75267 9.61599 8.81498 9.72908L11.1432 13.8219C9.13013 14.9356 7.42265 16.5411 6.17537 18.4929C4.92809 20.4447 4.18041 22.6812 4 25H32C31.8251 22.6828 31.0809 20.447 29.8353 18.4966C28.5896 16.5462 26.8822 14.9433 24.869 13.8343Z" fill="#3DDC84"/></svg>