<svg width="100%" height="100%" style="overflow:visible;" preserveAspectRatio="none" viewBox="0 0 36 36" fill="none" xmlns="http://www.w3.org/2000/svg"><rect width="36" height="36" rx="6" fill="#F2F2F2"/><path d="M27.5808 24.7033C27.2218 25.5418 26.7967 26.3136 26.3043 27.0232C25.633 27.9906 25.0834 28.6602 24.6598 29.032C24.0032 29.6424 23.2997 29.955 22.5464 29.9728C22.0056 29.9728 21.3534 29.8172 20.5942 29.5017C19.8325 29.1876 19.1325 29.032 18.4925 29.032C17.8212 29.032 17.1013 29.1876 16.3312 29.5017C15.56 29.8172 14.9387 29.9816 14.4637 29.9979C13.7413 30.0291 13.0213 29.7076 12.3025 29.032C11.8438 28.6276 11.27 27.9343 10.5826 26.9521C9.84508 25.9033 9.23875 24.687 8.76374 23.3004C8.25502 21.8026 8 20.3523 8 18.9482C8 17.3398 8.34384 15.9526 9.03254 14.7901C9.57379 13.8564 10.2939 13.1198 11.1951 12.5791C12.0963 12.0383 13.0701 11.7628 14.1187 11.7452C14.6925 11.7452 15.445 11.9246 16.38 12.2771C17.3125 12.6309 17.9112 12.8103 18.1737 12.8103C18.3699 12.8103 19.035 12.6005 20.1625 12.1823C21.2288 11.7945 22.1287 11.6339 22.8659 11.6972C24.8636 11.8601 26.3644 12.6561 27.3624 14.0901C25.5758 15.1843 24.6921 16.7169 24.7097 18.6829C24.7258 20.2142 25.2754 21.4886 26.3556 22.5004C26.8451 22.97 27.3918 23.333 28 23.5907C27.8681 23.9774 27.7289 24.3477 27.5808 24.7033ZM22.9993 6.48013C22.9993 7.68041 22.5654 8.8011 21.7007 9.8384C20.6572 11.0716 19.395 11.7841 18.0262 11.6717C18.0088 11.5277 17.9987 11.3761 17.9987 11.2169C17.9987 10.0646 18.4949 8.83147 19.3762 7.8232C19.8162 7.3127 20.3758 6.88823 21.0544 6.54961C21.7315 6.21605 22.372 6.03158 22.9744 6C22.9919 6.16045 22.9993 6.32094 22.9993 6.48013Z" fill="#3E3E3E"/></svg>