<svg width="100%" height="100%" style="overflow:visible;" preserveAspectRatio="none" viewBox="0 0 14 14" fill="none" xmlns="http://www.w3.org/2000/svg"><path d="M13.4899 5.64703C13.2072 4.31676 12.4574 3.10598 11.3784 2.23781C10.275 1.35497 8.90383 0.874303 7.49071 0.875001C5.82493 0.875001 4.26907 1.51676 3.10587 2.68215C1.98177 3.80981 1.36571 5.29867 1.37063 6.8734C1.37067 8.02793 1.70962 9.15706 2.34544 10.1207L2.46438 10.2862L1.80813 13.125L4.9472 12.3441C4.9472 12.3441 5.01009 12.3651 5.05657 12.3829C5.10306 12.4007 5.5031 12.5541 5.92747 12.6727C6.2802 12.7712 7.01411 12.9188 7.58915 12.9188C9.2202 12.9188 10.7433 12.2872 11.8775 11.1398C13.0016 10.0015 13.6206 8.48805 13.6206 6.87668C13.6207 6.46333 13.5769 6.05113 13.4899 5.64703ZM4.87063 7.875C4.69758 7.875 4.5284 7.82368 4.38451 7.72754C4.24062 7.63139 4.12847 7.49473 4.06224 7.33485C3.99601 7.17496 3.97869 6.99903 4.01245 6.8293C4.04621 6.65956 4.12955 6.50365 4.25192 6.38128C4.37429 6.25891 4.5302 6.17558 4.69993 6.14181C4.86966 6.10805 5.0456 6.12538 5.20548 6.19161C5.36537 6.25783 5.50202 6.36998 5.59817 6.51388C5.69432 6.65777 5.74563 6.82694 5.74563 7C5.74563 7.23207 5.65345 7.45463 5.48935 7.61872C5.32526 7.78281 5.1027 7.875 4.87063 7.875ZM7.49563 7.875C7.32258 7.875 7.1534 7.82368 7.00951 7.72754C6.86562 7.63139 6.75347 7.49473 6.68724 7.33485C6.62101 7.17496 6.60368 6.99903 6.63745 6.8293C6.67121 6.65956 6.75455 6.50365 6.87692 6.38128C6.99929 6.25891 7.1552 6.17558 7.32493 6.14181C7.49466 6.10805 7.6706 6.12538 7.83048 6.19161C7.99037 6.25783 8.12702 6.36998 8.22317 6.51388C8.31932 6.65777 8.37063 6.82694 8.37063 7C8.37063 7.23207 8.27845 7.45463 8.11435 7.61872C7.95026 7.78281 7.7277 7.875 7.49563 7.875ZM10.1206 7.875C9.94758 7.875 9.7784 7.82368 9.63451 7.72754C9.49062 7.63139 9.37847 7.49473 9.31224 7.33485C9.24601 7.17496 9.22868 6.99903 9.26245 6.8293C9.29621 6.65956 9.37955 6.50365 9.50192 6.38128C9.62429 6.25891 9.7802 6.17558 9.94993 6.14181C10.1197 6.10805 10.2956 6.12538 10.4555 6.19161C10.6154 6.25783 10.752 6.36998 10.8482 6.51388C10.9443 6.65777 10.9956 6.82694 10.9956 7C10.9956 7.23207 10.9034 7.45463 10.7394 7.61872C10.5753 7.78281 10.3527 7.875 10.1206 7.875Z" fill="#1976D2"/></svg>