<svg width="80" height="80" viewBox="0 0 80 80" fill="none" xmlns="http://www.w3.org/2000/svg">
<rect x="-0.00463867" width="80" height="80" rx="12" fill="#E3E3E5"/>
<path d="M60.9993 21.121L58.8783 19L18.9993 58.879L21.1203 61L24.1203 58H54.9993C55.7946 57.9988 56.5569 57.6824 57.1193 57.12C57.6816 56.5577 57.9981 55.7953 57.9993 55V24.121L60.9993 21.121ZM54.9993 55H27.1203L38.8098 43.3105L42.3783 46.879C42.9409 47.4414 43.7038 47.7574 44.4993 47.7574C45.2948 47.7574 46.0577 47.4414 46.6203 46.879L48.9993 44.5L54.9993 50.4955V55ZM54.9993 46.252L51.1203 42.373C50.5577 41.8106 49.7948 41.4946 48.9993 41.4946C48.2038 41.4946 47.4409 41.8106 46.8783 42.373L44.4993 44.752L40.9338 41.1865L54.9993 27.121V46.252ZM24.9993 49V44.5L32.4993 37.0045L34.5588 39.0655L36.6828 36.9415L34.6203 34.879C34.0577 34.3166 33.2948 34.0006 32.4993 34.0006C31.7038 34.0006 30.9409 34.3166 30.3783 34.879L24.9993 40.258V25H48.9993V22H24.9993C24.2039 22.0008 23.4413 22.3171 22.8788 22.8796C22.3164 23.442 22.0001 24.2046 21.9993 25V49H24.9993Z" fill="#B1B1B1"/>
</svg>
