<svg width="18" height="19" viewBox="0 0 18 19" fill="none" xmlns="http://www.w3.org/2000/svg">
<path d="M16.7275 3.25843L17.3867 2.56409C17.7207 2.21253 17.7471 1.72913 17.4131 1.39514L17.1846 1.15784C16.8857 0.859011 16.3848 0.902956 16.0596 1.22815L15.374 1.89612L16.7275 3.25843ZM6.32129 12.61L8.12305 11.8541L16.0859 3.89124L14.7324 2.54651L6.76953 10.5182L5.97852 12.2584C5.89062 12.4606 6.11914 12.6891 6.32129 12.61ZM2.98145 18.5074H13.2207C14.9082 18.5074 15.9014 17.5231 15.9014 15.6422V6.36096L14.1436 8.10999V15.484C14.1436 16.3278 13.6953 16.7496 13.1064 16.7496H3.0957C2.28711 16.7496 1.84766 16.3278 1.84766 15.484V5.71936C1.84766 4.87561 2.28711 4.45374 3.0957 4.45374H10.5576L12.3066 2.69593H2.98145C1.08301 2.69593 0.0898438 3.6803 0.0898438 5.56116V15.6422C0.0898438 17.5231 1.08301 18.5074 2.98145 18.5074Z" fill="#1976D2"/>
</svg>
