<svg width="100%" height="100%" style="overflow:visible;" preserveAspectRatio="none" viewBox="0 0 36 36" fill="none" xmlns="http://www.w3.org/2000/svg"><rect width="36" height="36" rx="6" fill="#F2F2F2"/><path d="M9.67168 12.1669C9.67168 12.1669 7.82009 13.9284 7.71885 15.7915V16.138C7.8006 17.6434 8.94125 18.5298 8.94125 18.5298C10.7696 20.3107 15.1987 22.5509 16.2374 23.0572C16.2374 23.0572 16.2996 23.0886 16.3386 23.0498L16.3581 23.0109V22.9684C13.5189 16.8078 9.67093 12.1676 9.67093 12.1676L9.67168 12.1669ZM15.6479 24.5731C15.6284 24.4917 15.5504 24.4917 15.5504 24.4917L8.17181 24.7523C8.96899 26.1756 10.3204 27.2688 11.7303 26.9417C12.6909 26.6931 14.8905 25.1682 15.6089 24.6508C15.6712 24.6 15.6479 24.5611 15.6479 24.5611V24.5731ZM15.7297 23.795C12.4877 21.613 6.21073 18.2804 6.21073 18.2804C6.05849 18.7351 6.01125 19.175 6 19.5715V19.6417C6 20.7073 6.39822 21.454 6.39822 21.454C7.19915 23.1379 8.73801 23.6479 8.73801 23.6479C9.44145 23.9436 10.1404 23.9548 10.1404 23.9548C10.2611 23.9742 14.5388 23.9548 15.6787 23.9548C15.7297 23.9548 15.7604 23.904 15.7604 23.904V23.8458C15.7604 23.8144 15.7297 23.795 15.7297 23.795ZM15.0577 9.22999C13.6043 9.59963 12.5619 10.8713 12.4877 12.3648V12.7732C12.5192 13.3721 12.6482 13.8194 12.6482 13.8194C13.3081 16.7055 16.5111 21.4346 17.1988 22.43C17.2498 22.4807 17.3 22.4613 17.3 22.4613C17.339 22.4457 17.3623 22.4031 17.3585 22.3605C18.4212 11.8092 16.2494 9.00075 16.2494 9.00075C15.9291 9.02016 15.0577 9.22999 15.0577 9.22999ZM23.358 11.4896C23.358 11.4896 22.8698 9.6967 20.9207 9.21805C20.9207 9.21805 20.3508 9.07766 19.7486 9C19.7486 9 17.5693 11.7965 18.6274 22.371C18.6394 22.4412 18.6897 22.4486 18.6897 22.4486C18.7602 22.48 18.7872 22.4218 18.7872 22.4218C19.5101 21.395 22.6891 16.6854 23.3378 13.8187C23.3378 13.8187 23.697 12.4223 23.3573 11.4889L23.358 11.4896ZM20.44 24.5029C20.44 24.5029 20.3695 24.5029 20.35 24.5499C20.35 24.5499 20.338 24.6201 20.377 24.6508C21.076 25.16 23.2283 26.6423 24.2594 26.9417C24.2594 26.9417 24.4199 26.9925 24.6891 27H24.8256C25.5171 26.9806 26.7275 26.6341 27.8254 24.7523L20.4273 24.5036L20.44 24.5029ZM28.2678 16.1298C28.4088 14.0763 26.3263 12.1744 26.3263 12.1669C26.3263 12.1669 22.4791 16.8071 19.6586 22.9206C19.6586 22.9206 19.6271 22.9982 19.6781 23.049L19.7171 23.0565H19.7793C20.8375 22.5315 25.2358 20.2988 27.0559 18.5373C27.0559 18.5373 28.2086 17.6113 28.2678 16.1298ZM29.7872 18.261C29.7872 18.261 23.5102 21.6138 20.2683 23.7838C20.2683 23.7838 20.2173 23.8264 20.2368 23.8966C20.2368 23.8966 20.2683 23.9548 20.3073 23.9548C21.4674 23.9548 25.8695 23.9548 25.979 23.9354C25.979 23.9354 26.549 23.916 27.2487 23.6479C27.2487 23.6479 28.807 23.1498 29.6192 21.3845C29.6192 21.3845 30.3497 19.9411 29.7872 18.261Z" fill="#EA0202"/></svg>