<svg width="132" height="30" viewBox="0 0 132 30" fill="none" xmlns="http://www.w3.org/2000/svg">
<path d="M117.254 25.2221V5.46973H126.14C127.045 5.46973 127.856 5.62065 128.573 5.9225C129.309 6.20549 129.932 6.62053 130.441 7.16764C130.95 7.69588 131.337 8.33731 131.601 9.09194C131.865 9.84656 131.997 10.6767 131.997 11.5822C131.997 12.5066 131.865 13.3461 131.601 14.1008C131.337 14.8365 130.95 15.478 130.441 16.0251C129.932 16.5533 129.309 16.9684 128.573 17.2702C127.856 17.5532 127.045 17.6947 126.14 17.6947H120.989V25.2221H117.254ZM120.989 14.4687H125.8C126.517 14.4687 127.083 14.28 127.498 13.9027C127.913 13.5065 128.121 12.95 128.121 12.2331V10.9313C128.121 10.2144 127.913 9.66734 127.498 9.29003C127.083 8.91271 126.517 8.72406 125.8 8.72406H120.989V14.4687Z" fill="#B1B1B1"/>
<path d="M104.865 25.5614C103.564 25.5614 102.385 25.3445 101.328 24.9105C100.272 24.4766 99.3661 23.8258 98.6115 22.958C97.8757 22.0901 97.3003 21.0242 96.8853 19.7602C96.4702 18.4962 96.2627 17.0247 96.2627 15.3456C96.2627 13.6855 96.4702 12.2234 96.8853 10.9594C97.3003 9.67651 97.8757 8.60117 98.6115 7.73335C99.3661 6.86553 100.272 6.21466 101.328 5.78075C102.385 5.34684 103.564 5.12988 104.865 5.12988C106.167 5.12988 107.346 5.34684 108.403 5.78075C109.459 6.21466 110.365 6.86553 111.119 7.73335C111.874 8.60117 112.449 9.67651 112.846 10.9594C113.261 12.2234 113.468 13.6855 113.468 15.3456C113.468 17.0247 113.261 18.4962 112.846 19.7602C112.449 21.0242 111.874 22.0901 111.119 22.958C110.365 23.8258 109.459 24.4766 108.403 24.9105C107.346 25.3445 106.167 25.5614 104.865 25.5614ZM104.865 22.2505C106.28 22.2505 107.403 21.7788 108.233 20.8356C109.082 19.8923 109.506 18.5717 109.506 16.8738V13.8175C109.506 12.1196 109.082 10.799 108.233 9.85574C107.403 8.91245 106.28 8.44081 104.865 8.44081C103.451 8.44081 102.319 8.91245 101.47 9.85574C100.64 10.799 100.224 12.1196 100.224 13.8175V16.8738C100.224 18.5717 100.64 19.8923 101.47 20.8356C102.319 21.7788 103.451 22.2505 104.865 22.2505Z" fill="#B1B1B1"/>
<path d="M88.7408 16.874H80.5059V25.2221H76.7705V5.46973H80.5059V13.5631H88.7408V5.46973H92.4762V25.2221H88.7408V16.874Z" fill="#B1B1B1"/>
<path d="M65.6135 25.5614C63.9156 25.5614 62.4723 25.2596 61.2838 24.6559C60.1141 24.0522 59.1048 23.2598 58.2559 22.2788L60.7744 19.8451C61.4536 20.6375 62.2082 21.2412 63.0383 21.6562C63.8873 22.0713 64.8211 22.2788 65.8399 22.2788C66.9907 22.2788 67.8585 22.0335 68.4433 21.543C69.0282 21.0337 69.3206 20.3545 69.3206 19.5055C69.3206 18.8452 69.1319 18.3076 68.7546 17.8925C68.3773 17.4775 67.6698 17.1756 66.6322 16.987L64.7645 16.704C60.8216 16.0814 58.8501 14.1665 58.8501 10.9594C58.8501 10.0727 59.0105 9.2709 59.3312 8.554C59.6708 7.83711 60.1519 7.22397 60.7744 6.7146C61.397 6.20523 62.1422 5.81848 63.01 5.55436C63.8967 5.27138 64.8966 5.12988 66.0096 5.12988C67.5 5.12988 68.8018 5.37514 69.9148 5.86564C71.0279 6.35615 71.9806 7.08248 72.773 8.04463L70.2261 10.45C69.7356 9.8463 69.1413 9.3558 68.4433 8.97848C67.7453 8.60117 66.868 8.41251 65.8116 8.41251C64.7362 8.41251 63.925 8.62003 63.3779 9.03508C62.8497 9.43126 62.5855 9.99723 62.5855 10.733C62.5855 11.4876 62.8025 12.0442 63.2364 12.4026C63.6703 12.7611 64.3683 13.0252 65.3305 13.195L67.1699 13.5345C69.1697 13.893 70.6412 14.5344 71.5845 15.4588C72.5466 16.3644 73.0277 17.6378 73.0277 19.2791C73.0277 20.2224 72.8579 21.0808 72.5183 21.8543C72.1976 22.6089 71.7165 23.2692 71.0751 23.8352C70.4525 24.3823 69.679 24.8068 68.7546 25.1086C67.8491 25.4105 66.802 25.5614 65.6135 25.5614Z" fill="#B1B1B1"/>
<path d="M52.9397 25.5325C52.1662 25.5325 51.5908 25.3439 51.2135 24.9666C50.855 24.5704 50.6758 24.0704 50.6758 23.4667V22.9574C50.6758 22.3537 50.855 21.8537 51.2135 21.4576C51.5908 21.0614 52.1662 20.8633 52.9397 20.8633C53.732 20.8633 54.3074 21.0614 54.6659 21.4576C55.0243 21.8537 55.2035 22.3537 55.2035 22.9574V23.4667C55.2035 24.0704 55.0243 24.5704 54.6659 24.9666C54.3074 25.3439 53.732 25.5325 52.9397 25.5325Z" fill="#B1B1B1"/>
<path d="M35.7324 25.2221V5.46973H44.6182C45.5237 5.46973 46.3349 5.62065 47.0518 5.9225C47.7876 6.20549 48.4102 6.62053 48.9195 7.16764C49.4289 7.69588 49.8156 8.33731 50.0798 9.09194C50.3439 9.84656 50.4759 10.6767 50.4759 11.5822C50.4759 12.5066 50.3439 13.3461 50.0798 14.1008C49.8156 14.8365 49.4289 15.478 48.9195 16.0251C48.4102 16.5533 47.7876 16.9684 47.0518 17.2702C46.3349 17.5532 45.5237 17.6947 44.6182 17.6947H39.4678V25.2221H35.7324ZM39.4678 14.4687H44.2786C44.9955 14.4687 45.5614 14.28 45.9765 13.9027C46.3915 13.5065 46.5991 12.95 46.5991 12.2331V10.9313C46.5991 10.2144 46.3915 9.66734 45.9765 9.29003C45.5614 8.91271 44.9955 8.72406 44.2786 8.72406H39.4678V14.4687Z" fill="#B1B1B1"/>
<path d="M31.895 25.2218H18.1985V21.7694L24.3958 16.3361C25.4523 15.4117 26.2258 14.5816 26.7163 13.8458C27.2068 13.0912 27.4521 12.28 27.4521 11.4122V11.0443C27.4521 10.1765 27.1691 9.51615 26.6031 9.06338C26.0372 8.59173 25.3486 8.35591 24.5373 8.35591C23.5186 8.35591 22.7451 8.64833 22.2169 9.23317C21.6886 9.79914 21.3113 10.4877 21.0849 11.299L17.8589 10.0538C18.0664 9.39353 18.3588 8.77096 18.7361 8.18612C19.1135 7.58242 19.5851 7.05418 20.1511 6.60141C20.7359 6.14863 21.4151 5.79018 22.1886 5.52606C22.9621 5.26194 23.8487 5.12988 24.8486 5.12988C25.8862 5.12988 26.8107 5.28081 27.6219 5.58266C28.4331 5.86564 29.1123 6.27126 29.6594 6.7995C30.2253 7.32773 30.6498 7.9503 30.9328 8.6672C31.2347 9.38409 31.3856 10.167 31.3856 11.016C31.3856 11.8461 31.2535 12.6007 30.9894 13.2799C30.7253 13.959 30.3668 14.6099 29.9141 15.2325C29.4613 15.8362 28.933 16.421 28.3293 16.987C27.7256 17.5341 27.0842 18.0906 26.405 18.6566L22.2452 22.0807H31.895V25.2218Z" fill="#B1B1B1"/>
<path d="M0 5.46973H9.14042C9.95165 5.46973 10.678 5.59235 11.3194 5.83761C11.9797 6.08286 12.5362 6.42244 12.989 6.85635C13.4418 7.29026 13.7814 7.82794 14.0078 8.46937C14.253 9.09194 14.3756 9.78053 14.3756 10.5352C14.3756 11.2898 14.2719 11.9312 14.0644 12.4595C13.8757 12.9688 13.6116 13.3933 13.272 13.7329C12.9513 14.0725 12.574 14.3272 12.1401 14.497C11.725 14.6667 11.2911 14.7611 10.8383 14.7799V14.9497C11.2722 14.9497 11.7345 15.0346 12.225 15.2044C12.7343 15.3742 13.1965 15.6478 13.6116 16.0251C14.0455 16.3835 14.4039 16.8552 14.6869 17.44C14.9699 18.006 15.1114 18.7134 15.1114 19.5624C15.1114 20.3547 14.9794 21.0999 14.7152 21.798C14.47 22.4771 14.121 23.0714 13.6682 23.5808C13.2154 24.0902 12.6777 24.4958 12.0552 24.7976C11.4326 25.0806 10.7534 25.2221 10.0177 25.2221H0V5.46973ZM3.7354 22.0527H8.94233C9.65923 22.0527 10.2158 21.8734 10.6119 21.515C11.0081 21.1377 11.2062 20.6 11.2062 19.902V18.9398C11.2062 18.2418 11.0081 17.7041 10.6119 17.3268C10.2158 16.9495 9.65923 16.7608 8.94233 16.7608H3.7354V22.0527ZM3.7354 13.7046H8.34806C9.02723 13.7046 9.55547 13.5254 9.93278 13.1669C10.3101 12.7896 10.4988 12.2708 10.4988 11.6105V10.7333C10.4988 10.073 10.3101 9.56358 9.93278 9.20513C9.55547 8.82782 9.02723 8.63916 8.34806 8.63916H3.7354V13.7046Z" fill="#B1B1B1"/>
</svg>
