<svg width="100%" height="100%" style="overflow:visible;" preserveAspectRatio="none" viewBox="0 0 107 24" fill="none" xmlns="http://www.w3.org/2000/svg"><path d="M95.0469 20.2868V4.27539H102.25C102.984 4.27539 103.641 4.39773 104.222 4.64241C104.819 4.8718 105.324 5.20824 105.736 5.65173C106.149 6.07992 106.463 6.59987 106.677 7.21158C106.891 7.82328 106.998 8.49616 106.998 9.2302C106.998 9.97954 106.891 10.6601 106.677 11.2718C106.463 11.8682 106.149 12.3881 105.736 12.8316C105.324 13.2598 104.819 13.5963 104.222 13.8409C103.641 14.0703 102.984 14.185 102.25 14.185H98.0748V20.2868H95.0469ZM98.0748 11.57H101.974C102.556 11.57 103.014 11.4171 103.351 11.1112C103.687 10.7901 103.855 10.3389 103.855 9.7578V8.70261C103.855 8.12149 103.687 7.678 103.351 7.37215C103.014 7.0663 102.556 6.91337 101.974 6.91337H98.0748V11.57Z" fill="#1976D2"/><path d="M85.0047 20.5619C83.9495 20.5619 82.9937 20.3861 82.1373 20.0343C81.2809 19.6826 80.5469 19.155 79.9352 18.4515C79.3388 17.7481 78.8723 16.884 78.5359 15.8594C78.1995 14.8348 78.0312 13.642 78.0312 12.281C78.0312 10.9352 78.1995 9.75003 78.5359 8.72542C78.8723 7.68553 79.3388 6.81384 79.9352 6.11038C80.5469 5.40692 81.2809 4.87933 82.1373 4.5276C82.9937 4.17587 83.9495 4 85.0047 4C86.0599 4 87.0157 4.17587 87.8721 4.5276C88.7284 4.87933 89.4625 5.40692 90.0742 6.11038C90.6859 6.81384 91.1523 7.68553 91.4735 8.72542C91.8099 9.75003 91.9781 10.9352 91.9781 12.281C91.9781 13.642 91.8099 14.8348 91.4735 15.8594C91.1523 16.884 90.6859 17.7481 90.0742 18.4515C89.4625 19.155 88.7284 19.6826 87.8721 20.0343C87.0157 20.3861 86.0599 20.5619 85.0047 20.5619ZM85.0047 17.8781C86.1516 17.8781 87.0615 17.4958 87.7344 16.7311C88.4226 15.9665 88.7667 14.896 88.7667 13.5197V11.0423C88.7667 9.66592 88.4226 8.59544 87.7344 7.8308C87.0615 7.06617 86.1516 6.68386 85.0047 6.68386C83.8577 6.68386 82.9402 7.06617 82.252 7.8308C81.5791 8.59544 81.2427 9.66592 81.2427 11.0423V13.5197C81.2427 14.896 81.5791 15.9665 82.252 16.7311C82.9402 17.4958 83.8577 17.8781 85.0047 17.8781Z" fill="#1976D2"/><path d="M71.9336 13.5198H65.2584V20.2868H62.2305V4.27539H65.2584V10.8359H71.9336V4.27539H74.9616V20.2868H71.9336V13.5198Z" fill="#1976D2"/><path d="M53.1868 20.5619C51.8104 20.5619 50.6406 20.3172 49.6771 19.8279C48.729 19.3385 47.9108 18.6962 47.2227 17.901L49.2642 15.9283C49.8148 16.5705 50.4265 17.0599 51.0993 17.3963C51.7875 17.7328 52.5445 17.901 53.3703 17.901C54.3031 17.901 55.0066 17.7022 55.4807 17.3046C55.9547 16.8917 56.1918 16.3412 56.1918 15.653C56.1918 15.1177 56.0389 14.6819 55.733 14.3455C55.4272 14.009 54.8537 13.7643 54.0126 13.6114L52.4986 13.382C49.3025 12.8774 47.7044 11.3252 47.7044 8.72542C47.7044 8.00667 47.8344 7.35673 48.0943 6.77561C48.3696 6.19449 48.7596 5.69748 49.2642 5.28458C49.7689 4.87168 50.3729 4.55818 51.0764 4.34408C51.7952 4.11469 52.6057 4 53.5079 4C54.716 4 55.7712 4.1988 56.6735 4.59641C57.5758 4.99402 58.348 5.58279 58.9903 6.36271L56.9258 8.31252C56.5282 7.82316 56.0465 7.42555 55.4807 7.1197C54.9148 6.81384 54.2037 6.66092 53.3474 6.66092C52.4757 6.66092 51.8181 6.82914 51.3746 7.16558C50.9464 7.48672 50.7323 7.9455 50.7323 8.54191C50.7323 9.15362 50.9082 9.60475 51.2599 9.89531C51.6116 10.1859 52.1775 10.4 52.9574 10.5376L54.4484 10.8129C56.0694 11.1034 57.2623 11.6234 58.0269 12.3727C58.8068 13.1068 59.1968 14.139 59.1968 15.4695C59.1968 16.2341 59.0592 16.9299 58.7839 17.5569C58.5239 18.1686 58.134 18.7039 57.614 19.1626C57.1093 19.6061 56.4823 19.9502 55.733 20.1949C54.999 20.4396 54.1502 20.5619 53.1868 20.5619Z" fill="#1976D2"/><path d="M42.9132 20.5388C42.2862 20.5388 41.8198 20.3859 41.514 20.0801C41.2234 19.7589 41.0781 19.3537 41.0781 18.8643V18.4514C41.0781 17.962 41.2234 17.5568 41.514 17.2356C41.8198 16.9145 42.2862 16.7539 42.9132 16.7539C43.5555 16.7539 44.022 16.9145 44.3125 17.2356C44.6031 17.5568 44.7484 17.962 44.7484 18.4514V18.8643C44.7484 19.3537 44.6031 19.7589 44.3125 20.0801C44.022 20.3859 43.5555 20.5388 42.9132 20.5388Z" fill="#1976D2"/><path d="M28.9648 20.2868V4.27539H36.1677C36.9017 4.27539 37.5593 4.39773 38.1404 4.64241C38.7368 4.8718 39.2415 5.20824 39.6544 5.65173C40.0673 6.07992 40.3808 6.59987 40.5949 7.21158C40.809 7.82328 40.916 8.49616 40.916 9.2302C40.916 9.97954 40.809 10.6601 40.5949 11.2718C40.3808 11.8682 40.0673 12.3881 39.6544 12.8316C39.2415 13.2598 38.7368 13.5963 38.1404 13.8409C37.5593 14.0703 36.9017 14.185 36.1677 14.185H31.9928V20.2868H28.9648ZM31.9928 11.57H35.8924C36.4735 11.57 36.9323 11.4171 37.2687 11.1112C37.6052 10.7901 37.7734 10.3389 37.7734 9.7578V8.70261C37.7734 8.12149 37.6052 7.678 37.2687 7.37215C36.9323 7.0663 36.4735 6.91337 35.8924 6.91337H31.9928V11.57Z" fill="#191C1F"/><path d="M25.8543 20.2867H14.7518V17.4881L19.7755 13.0838C20.6318 12.3345 21.2588 11.6616 21.6565 11.0652C22.0541 10.4535 22.2529 9.79591 22.2529 9.09245V8.79424C22.2529 8.09078 22.0235 7.55554 21.5647 7.18851C21.1059 6.8062 20.5477 6.61504 19.8902 6.61504C19.0644 6.61504 18.4374 6.85208 18.0092 7.32615C17.581 7.78493 17.2751 8.34311 17.0916 9.00069L14.4766 7.99138C14.6448 7.45614 14.8818 6.95148 15.1877 6.47741C15.4935 5.98804 15.8758 5.55985 16.3346 5.19283C16.8087 4.8258 17.3592 4.53524 17.9862 4.32115C18.6132 4.10705 19.332 4 20.1425 4C20.9836 4 21.7329 4.12234 22.3905 4.36702C23.0481 4.59641 23.5986 4.9252 24.0421 5.3534C24.5009 5.78159 24.845 6.28625 25.0744 6.86737C25.319 7.44849 25.4414 8.08313 25.4414 8.7713C25.4414 9.44418 25.3343 10.0559 25.1202 10.6064C24.9061 11.157 24.6156 11.6845 24.2486 12.1892C23.8815 12.6786 23.4533 13.1526 22.964 13.6114C22.4746 14.0549 21.9547 14.506 21.4041 14.9648L18.0321 17.7404H25.8543V20.2867Z" fill="#191C1F"/><path d="M0 4.27539H7.40928C8.06686 4.27539 8.65563 4.37479 9.17558 4.5736C9.71082 4.7724 10.162 5.04767 10.529 5.3994C10.896 5.75113 11.1713 6.18697 11.3548 6.70692C11.5536 7.21158 11.653 7.76976 11.653 8.38146C11.653 8.99317 11.5689 9.51312 11.4007 9.94131C11.2477 10.3542 11.0336 10.6983 10.7584 10.9736C10.4984 11.2488 10.1925 11.4553 9.84081 11.5929C9.50437 11.7305 9.15264 11.807 8.78562 11.8223V11.9599C9.13735 11.9599 9.51202 12.0288 9.90963 12.1664C10.3225 12.304 10.6972 12.5258 11.0336 12.8316C11.3854 13.1222 11.6759 13.5045 11.9053 13.9786C12.1347 14.4373 12.2494 15.0108 12.2494 15.699C12.2494 16.3413 12.1424 16.9453 11.9283 17.5112C11.7295 18.0617 11.4465 18.5434 11.0795 18.9563C10.7125 19.3692 10.2767 19.698 9.77199 19.9427C9.26734 20.1721 8.7168 20.2868 8.12039 20.2868H0V4.27539ZM3.02794 17.7176H7.24871C7.82983 17.7176 8.28096 17.5723 8.60211 17.2818C8.92325 16.9759 9.08383 16.5401 9.08383 15.9743V15.1943C9.08383 14.6285 8.92325 14.1927 8.60211 13.8868C8.28096 13.581 7.82983 13.428 7.24871 13.428H3.02794V17.7176ZM3.02794 10.9506H6.76699C7.31753 10.9506 7.74572 10.8053 8.05157 10.5148C8.35742 10.2089 8.51035 9.78839 8.51035 9.25314V8.54204C8.51035 8.00679 8.35742 7.59389 8.05157 7.30333C7.74572 6.99748 7.31753 6.84455 6.76699 6.84455H3.02794V10.9506Z" fill="#191C1F"/></svg>