<svg width="136" height="21" viewBox="0 0 136 21" fill="none" xmlns="http://www.w3.org/2000/svg">
<g id="logo/b2p_black">
<path id="Vector" d="M120.808 20.358V0.34375H129.963C130.896 0.34375 131.731 0.496676 132.47 0.802528C133.228 1.08926 133.87 1.50981 134.394 2.06417C134.919 2.59941 135.318 3.24935 135.59 4.01398C135.862 4.77861 135.998 5.61971 135.998 6.53727C135.998 7.47394 135.862 8.32459 135.59 9.08922C135.318 9.83474 134.919 10.4847 134.394 11.039C133.87 11.5743 133.228 11.9948 132.47 12.3007C131.731 12.5874 130.896 12.7308 129.963 12.7308H124.656V20.358H120.808ZM124.656 9.46198H129.613C130.351 9.46198 130.934 9.27082 131.362 8.88851C131.79 8.48708 132.004 7.92316 132.004 7.19676V5.87777C132.004 5.15137 131.79 4.59701 131.362 4.2147C130.934 3.83238 130.351 3.64122 129.613 3.64122H124.656V9.46198Z" fill="#191C1F"/>
<path id="Vector_2" d="M108.043 20.7024C106.702 20.7024 105.487 20.4826 104.399 20.0429C103.31 19.6032 102.377 18.9438 101.6 18.0644C100.842 17.1851 100.249 16.1051 99.8211 14.8243C99.3935 13.5435 99.1797 12.0525 99.1797 10.3512C99.1797 8.66901 99.3935 7.18754 99.8211 5.90678C100.249 4.60691 100.842 3.51731 101.6 2.63798C102.377 1.75865 103.31 1.09916 104.399 0.659495C105.487 0.219832 106.702 0 108.043 0C109.384 0 110.599 0.219832 111.688 0.659495C112.776 1.09916 113.709 1.75865 114.487 2.63798C115.264 3.51731 115.857 4.60691 116.265 5.90678C116.693 7.18754 116.907 8.66901 116.907 10.3512C116.907 12.0525 116.693 13.5435 116.265 14.8243C115.857 16.1051 115.264 17.1851 114.487 18.0644C113.709 18.9438 112.776 19.6032 111.688 20.0429C110.599 20.4826 109.384 20.7024 108.043 20.7024ZM108.043 17.3476C109.501 17.3476 110.657 16.8697 111.513 15.9139C112.387 14.9581 112.825 13.62 112.825 11.8996V8.80282C112.825 7.0824 112.387 5.7443 111.513 4.78851C110.657 3.83272 109.501 3.35482 108.043 3.35482C106.585 3.35482 105.419 3.83272 104.544 4.78851C103.689 5.7443 103.262 7.0824 103.262 8.80282V11.8996C103.262 13.62 103.689 14.9581 104.544 15.9139C105.419 16.8697 106.585 17.3476 108.043 17.3476Z" fill="#191C1F"/>
<path id="Vector_3" d="M91.4297 11.8992H82.9453V20.358H79.0967V0.34375H82.9453V8.54442H91.4297V0.34375H95.2783V20.358H91.4297V11.8992Z" fill="#191C1F"/>
<path id="Vector_4" d="M67.6021 20.7024C65.8527 20.7024 64.3657 20.3966 63.1412 19.7848C61.9361 19.1731 60.8962 18.3703 60.0215 17.3763L62.6164 14.9103C63.3161 15.7132 64.0936 16.3249 64.9489 16.7454C65.8235 17.166 66.7857 17.3763 67.8353 17.3763C69.021 17.3763 69.9151 17.1278 70.5177 16.6307C71.1202 16.1146 71.4215 15.4264 71.4215 14.5662C71.4215 13.8972 71.2271 13.3524 70.8384 12.9318C70.4496 12.5113 69.7207 12.2054 68.6517 12.0143L66.7274 11.7275C62.665 11.0967 60.6338 9.15646 60.6338 5.90678C60.6338 5.00834 60.799 4.19592 61.1294 3.46952C61.4793 2.74312 61.9749 2.12185 62.6164 1.60573C63.2578 1.0896 64.0256 0.697726 64.9197 0.430105C65.8333 0.143368 66.8634 0 68.0102 0C69.5458 0 70.887 0.248505 72.0338 0.745517C73.1806 1.24253 74.1622 1.97848 74.9785 2.95339L72.3545 5.39065C71.8491 4.77895 71.2368 4.28194 70.5177 3.89962C69.7985 3.51731 68.8946 3.32615 67.8061 3.32615C66.6982 3.32615 65.8624 3.53642 65.2987 3.95697C64.7545 4.3584 64.4824 4.93188 64.4824 5.67739C64.4824 6.44202 64.7059 7.00594 65.1529 7.36914C65.6 7.73234 66.3192 7.99996 67.3105 8.172L69.2056 8.51609C71.266 8.87929 72.7821 9.52922 73.754 10.4659C74.7453 11.3835 75.2409 12.6738 75.2409 14.3368C75.2409 15.2926 75.066 16.1624 74.7161 16.9461C74.3857 17.7108 73.89 18.3798 73.2292 18.9533C72.5877 19.5077 71.7908 19.9378 70.8384 20.2436C69.9054 20.5495 68.8266 20.7024 67.6021 20.7024Z" fill="#191C1F"/>
<path id="Vector_5" d="M54.5444 20.6735C53.7475 20.6735 53.1546 20.4824 52.7659 20.1001C52.3966 19.6986 52.2119 19.1921 52.2119 18.5804V18.0642C52.2119 17.4525 52.3966 16.946 52.7659 16.5445C53.1546 16.1431 53.7475 15.9424 54.5444 15.9424C55.3608 15.9424 55.9536 16.1431 56.3229 16.5445C56.6922 16.946 56.8769 17.4525 56.8769 18.0642V18.5804C56.8769 19.1921 56.6922 19.6986 56.3229 20.1001C55.9536 20.4824 55.3608 20.6735 54.5444 20.6735Z" fill="#191C1F"/>
<path id="Vector_6" d="M36.8154 20.358V0.34375H45.9704C46.9034 0.34375 47.7392 0.496676 48.4778 0.802528C49.2359 1.08926 49.8773 1.50981 50.4021 2.06417C50.927 2.59941 51.3254 3.24935 51.5975 4.01398C51.8697 4.77861 52.0057 5.61971 52.0057 6.53727C52.0057 7.47394 51.8697 8.32459 51.5975 9.08922C51.3254 9.83474 50.927 10.4847 50.4021 11.039C49.8773 11.5743 49.2359 11.9948 48.4778 12.3007C47.7392 12.5874 46.9034 12.7308 45.9704 12.7308H40.664V20.358H36.8154ZM40.664 9.46198H45.6206C46.3592 9.46198 46.9423 9.27082 47.3699 8.88851C47.7975 8.48708 48.0114 7.92316 48.0114 7.19676V5.87777C48.0114 5.15137 47.7975 4.59701 47.3699 4.2147C46.9423 3.83238 46.3592 3.64122 45.6206 3.64122H40.664V9.46198Z" fill="#191C1F"/>
<path id="Vector_7" d="M32.8618 20.3583H18.7503V16.8601L25.1354 11.3548C26.2239 10.4181 27.0209 9.57701 27.5262 8.8315C28.0316 8.06686 28.2843 7.24488 28.2843 6.36556V5.9928C28.2843 5.11347 27.9927 4.44442 27.4096 3.98564C26.8265 3.50775 26.117 3.2688 25.2812 3.2688C24.2316 3.2688 23.4347 3.5651 22.8904 4.15769C22.3462 4.73116 21.9574 5.42888 21.7242 6.25086L18.4004 4.98922C18.6142 4.32017 18.9155 3.68935 19.3042 3.09676C19.693 2.48505 20.1789 1.94981 20.762 1.49103C21.3646 1.03225 22.0643 0.669053 22.8613 0.401432C23.6582 0.133811 24.5718 0 25.6019 0C26.671 0 27.6234 0.152927 28.4592 0.45878C29.295 0.745517 29.9948 1.15651 30.5585 1.69175C31.1416 2.22699 31.5789 2.85781 31.8705 3.58421C32.1815 4.31061 32.337 5.10392 32.337 5.96413C32.337 6.80522 32.2009 7.56985 31.9288 8.25802C31.6567 8.94619 31.2874 9.60569 30.8209 10.2365C30.3544 10.8482 29.8101 11.4408 29.1881 12.0143C28.5661 12.5686 27.9053 13.1325 27.2055 13.706L22.9196 17.1755H32.8618V20.3583Z" fill="#191C1F"/>
<path id="Vector_8" d="M0 0.34375H9.41741C10.2532 0.34375 11.0016 0.468002 11.6624 0.716507C12.3427 0.965012 12.9161 1.3091 13.3826 1.74876C13.8491 2.18842 14.199 2.73322 14.4322 3.38316C14.6849 4.01398 14.8113 4.71171 14.8113 5.47634C14.8113 6.24097 14.7044 6.89091 14.4906 7.42615C14.2962 7.94228 14.0241 8.37238 13.6742 8.71647C13.3438 9.06055 12.955 9.31861 12.5079 9.49066C12.0803 9.6627 11.6333 9.75828 11.1668 9.77739V9.94944C11.6138 9.94944 12.09 10.0355 12.5954 10.2075C13.1202 10.3795 13.5964 10.6567 14.0241 11.039C14.4711 11.4022 14.8404 11.8801 15.132 12.4727C15.4236 13.0462 15.5693 13.763 15.5693 14.6232C15.5693 15.4261 15.4333 16.1812 15.1611 16.8885C14.9085 17.5766 14.5489 18.1788 14.0824 18.6949C13.6159 19.211 13.0619 19.622 12.4205 19.9279C11.779 20.2146 11.0793 20.358 10.3212 20.358H0V0.34375ZM3.8486 17.1465H9.21331C9.95193 17.1465 10.5253 16.9649 10.9335 16.6017C11.3417 16.2194 11.5458 15.6746 11.5458 14.9673V13.9924C11.5458 13.2851 11.3417 12.7403 10.9335 12.358C10.5253 11.9757 9.95193 11.7846 9.21331 11.7846H3.8486V17.1465ZM3.8486 8.68779H8.60104C9.30078 8.68779 9.84503 8.50619 10.2338 8.14299C10.6225 7.76068 10.8169 7.23499 10.8169 6.56594V5.67706C10.8169 5.008 10.6225 4.49188 10.2338 4.12868C9.84503 3.74636 9.30078 3.5552 8.60104 3.5552H3.8486V8.68779Z" fill="#191C1F"/>
</g>
</svg>
