<svg width="14" height="11" viewBox="0 0 14 11" fill="none" xmlns="http://www.w3.org/2000/svg">
<path d="M6.66667 0C8.04553 0 9.35285 0.478384 10.4911 1.36404C11.6293 2.24323 12.5984 3.5297 13.2943 5.13939C13.3463 5.26222 13.3463 5.40444 13.2943 5.52081C11.9024 8.7402 9.42439 10.6667 6.66667 10.6667H6.66016C3.90894 10.6667 1.43089 8.7402 0.0390244 5.52081C-0.0130081 5.40444 -0.0130081 5.26222 0.0390244 5.13939C1.43089 1.92 3.90894 0 6.66016 0H6.66667ZM6.66667 2.74747C5.22927 2.74747 4.06504 3.90465 4.06504 5.33333C4.06504 6.75555 5.22927 7.91272 6.66667 7.91272C8.09756 7.91272 9.26179 6.75555 9.26179 5.33333C9.26179 3.90465 8.09756 2.74747 6.66667 2.74747ZM6.66745 3.71575C7.5585 3.71575 8.28696 4.43979 8.28696 5.33191C8.28696 6.21757 7.5585 6.94161 6.66745 6.94161C5.76989 6.94161 5.04143 6.21757 5.04143 5.33191C5.04143 5.22201 5.05444 5.11858 5.07395 5.01514H5.10647C5.82842 5.01514 6.41379 4.44625 6.43981 3.73514C6.51135 3.72221 6.5894 3.71575 6.66745 3.71575Z" fill="#B8BBC5"/>
</svg>
