<svg width="14" height="12" viewBox="0 0 14 12" fill="none" xmlns="http://www.w3.org/2000/svg">
<path d="M11.4469 0.142754C11.6421 -0.0475846 11.9478 -0.0475846 12.1364 0.142754C12.3316 0.333092 12.3316 0.648135 12.1364 0.838473L10.9525 2.03301C11.8957 2.89938 12.6959 4.06766 13.2943 5.47223C13.3463 5.59693 13.3463 5.74133 13.2943 5.85947C11.9023 9.12803 9.42388 11.0839 6.66579 11.0839H6.65928C5.40383 11.0839 4.20042 10.6704 3.14012 9.91564L1.87817 11.1889C1.78059 11.2874 1.657 11.3333 1.53341 11.3333C1.40981 11.3333 1.27971 11.2874 1.18864 11.1889C1.02602 11.0249 1 10.7623 1.1301 10.572L1.14961 10.5457L10.7704 0.838473C10.7834 0.825346 10.7964 0.81222 10.8029 0.799093C10.8159 0.785966 10.8289 0.772839 10.8354 0.759712L11.4469 0.142754ZM6.66754 0.256891C7.59775 0.256891 8.50193 0.480046 9.33456 0.900103L7.16192 3.09228C7.0058 3.06602 6.83667 3.04633 6.66754 3.04633C5.22996 3.04633 4.06558 4.22118 4.06558 5.67169C4.06558 5.84234 4.08509 6.01298 4.11111 6.17051L1.70429 8.59896C1.0538 7.83761 0.487869 6.91873 0.0390295 5.86203C-0.0130098 5.74389 -0.0130098 5.59949 0.0390295 5.47479C1.43108 2.20622 3.90946 0.256891 6.66104 0.256891H6.66754ZM8.81241 4.19237L8.10338 4.90777C8.22047 5.13093 8.28551 5.39347 8.28551 5.66913C8.28551 6.56831 7.55696 7.30341 6.66579 7.30341C6.39258 7.30341 6.13238 7.23778 5.91122 7.11964L5.20218 7.83505C5.6185 8.11727 6.12588 8.28792 6.66579 8.28792C8.09687 8.28792 9.26125 7.11307 9.26125 5.66913C9.26125 5.12437 9.09212 4.61242 8.81241 4.19237Z" fill="#1976D2"/>
</svg>
