<svg width="39" height="24" viewBox="0 0 39 24" fill="none" xmlns="http://www.w3.org/2000/svg">
<g id="card" clip-path="url(#clip0_4083_196461)">
<g id="Group">
<g id="&#208;&#160;&#208;&#181;&#208;&#182;&#208;&#184;&#208;&#188; &#208;&#184;&#208;&#183;&#208;&#190;&#208;&#187;&#209;&#143;&#209;&#134;&#208;&#184;&#208;&#184;">
<path id="Vector" d="M37.0705 0H1.47495C0.660359 0 0 0.660022 0 1.4742V22.5258C0 23.34 0.660359 24 1.47495 24H37.0705C37.8851 24 38.5455 23.34 38.5455 22.5258V1.4742C38.5455 0.660022 37.8851 0 37.0705 0Z" fill="url(#paint0_linear_4083_196461)"/>
<path id="Vector_2" style="mix-blend-mode:screen" d="M37.0686 0H9.96484L24.2326 24H37.0686C37.4598 24 37.8349 23.8447 38.1115 23.5682C38.3881 23.2917 38.5435 22.9168 38.5435 22.5258V1.4742C38.5435 1.08322 38.3881 0.70825 38.1115 0.431784C37.8349 0.155317 37.4598 0 37.0686 0Z" fill="url(#paint1_linear_4083_196461)"/>
<path id="Vector_3" d="M8.07896 6.30273H4.41517C4.01113 6.30273 3.68359 6.63011 3.68359 7.03394V9.63246C3.68359 10.0363 4.01113 10.3637 4.41517 10.3637H8.07896C8.48299 10.3637 8.81053 10.0363 8.81053 9.63246V7.03394C8.81053 6.63011 8.48299 6.30273 8.07896 6.30273Z" fill="url(#paint2_linear_4083_196461)"/>
<path id="Vector_4" style="mix-blend-mode:multiply" d="M8.81053 7.58426V7.48991H7.8646V6.31055H7.7702V7.48991H7.01699C6.96819 7.33148 6.87366 7.19099 6.74525 7.08608C6.61684 6.98117 6.46029 6.91652 6.29525 6.90023V6.31055H6.20085V6.90023C6.02436 6.90341 5.85336 6.9621 5.71214 7.06795C5.57093 7.17381 5.46668 7.32145 5.41421 7.48991H4.71803V6.31055H4.62363V7.48991H3.68359V7.58426H4.62953V8.913H3.68359V9.00539H4.62953V10.3636H4.71803V9.00539H5.38864C5.43073 9.18875 5.53295 9.35279 5.67906 9.47139C5.82517 9.59 6.00676 9.65636 6.19495 9.65993V10.3636H6.29131V9.65404C6.46731 9.6372 6.63357 9.56552 6.7666 9.44913C6.89964 9.33274 6.99273 9.17752 7.03272 9.00539H7.77413V10.3636H7.8646V9.00539H8.80267V8.913H8.25792V7.58426H8.81053ZM5.38077 8.913H4.71803V7.58426H5.38667C5.37735 7.63618 5.37209 7.68876 5.37094 7.74151C5.37121 7.93854 5.44083 8.12919 5.5676 8.28008C5.44053 8.4308 5.37088 8.62156 5.37094 8.81866C5.37094 8.84617 5.37881 8.88155 5.38077 8.913ZM6.21658 9.56755C6.07071 9.56829 5.92781 9.52635 5.8055 9.4469C5.68319 9.36744 5.58683 9.25395 5.52828 9.12041C5.46974 8.98687 5.45157 8.83912 5.47603 8.69539C5.50049 8.55165 5.56651 8.41822 5.66593 8.31153L5.69543 8.28008L5.66593 8.25649C5.56619 8.14949 5.49989 8.0157 5.47516 7.87156C5.45043 7.72742 5.46836 7.5792 5.52673 7.4451C5.58511 7.311 5.6814 7.19686 5.80377 7.11668C5.92614 7.03651 6.06928 6.99381 6.2156 6.99381C6.36192 6.99381 6.50505 7.03651 6.62742 7.11668C6.7498 7.19686 6.84609 7.311 6.90446 7.4451C6.96284 7.5792 6.98076 7.72742 6.95604 7.87156C6.93131 8.0157 6.865 8.14949 6.76526 8.25649L6.73576 8.28794L6.76526 8.31939C6.86457 8.42596 6.93055 8.55921 6.95507 8.70276C6.9796 8.84631 6.9616 8.9939 6.9033 9.12736C6.845 9.26083 6.74893 9.37434 6.62692 9.45395C6.50491 9.53355 6.36228 9.57577 6.21658 9.57541V9.56755ZM8.15762 8.913H7.05042C7.05042 8.88155 7.05042 8.85011 7.05042 8.81866C7.05049 8.62156 6.98083 8.4308 6.85376 8.28008C6.98053 8.12919 7.05015 7.93854 7.05042 7.74151C7.04928 7.68876 7.04402 7.63618 7.03469 7.58426H8.14779L8.15762 8.913Z" fill="url(#paint3_linear_4083_196461)"/>
<path id="Vector_5" d="M3.90121 13.1693L3.78125 13.0455L4.14114 12.6523H4.44006V14.441H4.2434V12.8686C4.23883 12.8472 4.23883 12.8251 4.2434 12.8037L3.90121 13.1693Z" fill="#D6D6D6"/>
<path id="Vector_6" d="M4.82269 14.4508V14.1796C4.81952 14.1594 4.81952 14.1388 4.82269 14.1186C4.8349 14.1022 4.84948 14.0876 4.86595 14.0754L5.71356 13.3009C5.73175 13.2872 5.746 13.2689 5.75486 13.2479C5.7588 13.2231 5.7588 13.1979 5.75486 13.1732V12.9452C5.75666 12.9288 5.75666 12.9123 5.75486 12.896C5.75486 12.896 5.74306 12.8783 5.72733 12.8665C5.71736 12.8567 5.70524 12.8493 5.69193 12.8449C5.67237 12.8419 5.65248 12.8419 5.63293 12.8449H5.18848C5.16892 12.8419 5.14903 12.8419 5.12948 12.8449C5.11658 12.8501 5.10462 12.8574 5.09408 12.8665C5.08275 12.8741 5.07333 12.8842 5.06655 12.896C5.06475 12.9123 5.06475 12.9288 5.06655 12.9452V12.9943H4.84825V12.8921C4.84772 12.8675 4.85295 12.8431 4.86354 12.821C4.87413 12.7988 4.88977 12.7794 4.90922 12.7643L4.97018 12.7132C5.00422 12.6822 5.04807 12.6641 5.09408 12.6621H5.73716C5.78317 12.6641 5.82702 12.6822 5.86106 12.7132L5.92202 12.7643C5.94147 12.7794 5.95711 12.7988 5.9677 12.821C5.97829 12.8431 5.98352 12.8675 5.98299 12.8921V13.2518C5.98692 13.2765 5.98692 13.3017 5.98299 13.3265C5.97534 13.3482 5.96084 13.3668 5.94169 13.3796L5.08818 14.152C5.07094 14.1665 5.05631 14.1838 5.04492 14.2031C5.04068 14.2246 5.04068 14.2466 5.04492 14.268V14.2798H5.99085V14.4587L4.82269 14.4508Z" fill="#D6D6D6"/>
<path id="Vector_7" d="M7.40164 13.5447L7.50194 13.6272C7.52003 13.6389 7.53544 13.6543 7.54717 13.6724C7.5504 13.6979 7.5504 13.7236 7.54717 13.7491V14.2208C7.55145 14.2442 7.55145 14.2682 7.54717 14.2916C7.53675 14.3111 7.5235 14.329 7.50784 14.3447L7.46064 14.3918C7.44563 14.4092 7.42727 14.4234 7.40666 14.4335C7.38605 14.4437 7.36361 14.4495 7.34068 14.4508H6.61303C6.56702 14.4488 6.52317 14.4307 6.48914 14.3997L6.42817 14.3486C6.40884 14.3334 6.39328 14.314 6.3827 14.2919C6.37213 14.2697 6.36682 14.2454 6.36721 14.2208V14.1186H6.58157V14.1658C6.5798 14.1828 6.5798 14.1999 6.58157 14.2169C6.58888 14.2283 6.59821 14.2383 6.6091 14.2464C6.62016 14.2547 6.63202 14.262 6.6445 14.268C6.66412 14.2699 6.68388 14.2699 6.7035 14.268H7.20891C7.22853 14.2699 7.24829 14.2699 7.26791 14.268C7.28086 14.2629 7.29283 14.2556 7.30331 14.2464C7.31904 14.2326 7.32888 14.2248 7.33084 14.2169C7.33261 14.1999 7.33261 14.1828 7.33084 14.1658V13.7727C7.3308 13.7543 7.32673 13.7361 7.31892 13.7195C7.3111 13.7029 7.29973 13.6881 7.28561 13.6764L7.24628 13.6429C7.23076 13.6271 7.21284 13.6139 7.19318 13.6036C7.17159 13.6018 7.14988 13.6018 7.12828 13.6036H6.7271V13.4385H7.10075C7.12229 13.4413 7.14411 13.4413 7.16565 13.4385C7.18531 13.4283 7.20323 13.415 7.21875 13.3992L7.25611 13.3697C7.27424 13.358 7.28966 13.3426 7.30134 13.3245C7.30472 13.3037 7.30472 13.2824 7.30134 13.2616V12.9452C7.30417 12.9289 7.30417 12.9123 7.30134 12.896C7.29616 12.8837 7.28721 12.8734 7.27578 12.8665C7.26524 12.8574 7.25328 12.8501 7.24038 12.8449C7.22081 12.8421 7.20095 12.8421 7.18138 12.8449H6.76053C6.74031 12.842 6.71978 12.842 6.69956 12.8449C6.68666 12.8501 6.67471 12.8574 6.66416 12.8665C6.65284 12.8741 6.64342 12.8842 6.63663 12.896C6.63483 12.9123 6.63483 12.9288 6.63663 12.9452V12.9943H6.41834V12.8921C6.4178 12.8675 6.42304 12.8431 6.43362 12.821C6.44421 12.7988 6.45986 12.7794 6.4793 12.7643L6.54223 12.7132C6.57497 12.6814 6.61853 12.6632 6.66416 12.6621H7.27775C7.32334 12.6634 7.36683 12.6816 7.39967 12.7132L7.46064 12.7643C7.48033 12.7793 7.49627 12.7986 7.50719 12.8208C7.51812 12.843 7.52372 12.8674 7.52357 12.8921V13.3108C7.52832 13.3288 7.52832 13.3478 7.52357 13.3658C7.51319 13.3814 7.49982 13.3947 7.48424 13.4051L7.40951 13.466C7.39031 13.4848 7.36538 13.4965 7.33871 13.4995V13.5132C7.36244 13.5169 7.38443 13.5279 7.40164 13.5447Z" fill="#D6D6D6"/>
<path id="Vector_8" d="M8.81479 13.3521H9.03112V13.8632H9.27498V14.042H9.03112V14.4509H8.81479V14.042H7.91016V13.8317L8.78529 12.6523H9.02522L8.17368 13.7944C8.16289 13.8131 8.14812 13.8292 8.13042 13.8415V13.8533H8.81479V13.3521Z" fill="#D6D6D6"/>
<path id="Vector_9" d="M11.9855 13.2754H12.5636C12.6092 13.2766 12.6527 13.2948 12.6856 13.3265L12.7465 13.3776C12.7662 13.3925 12.7822 13.4119 12.7931 13.434C12.804 13.4562 12.8096 13.4806 12.8095 13.5054V14.2208C12.8095 14.2455 12.8038 14.2699 12.7929 14.292C12.782 14.3142 12.7661 14.3335 12.7465 14.3486L12.6856 14.3997C12.652 14.4303 12.609 14.4483 12.5636 14.4508H11.8006C11.7553 14.4483 11.7122 14.4303 11.6787 14.3997L11.6039 14.3486C11.5849 14.3331 11.5696 14.3137 11.5591 14.2916C11.5485 14.2695 11.543 14.2453 11.543 14.2208V14.1186H11.7573V14.1658C11.7556 14.1828 11.7556 14.1999 11.7573 14.2169C11.7646 14.2283 11.774 14.2383 11.7849 14.2464C11.7959 14.2547 11.8078 14.262 11.8203 14.268C11.8399 14.2699 11.8596 14.2699 11.8793 14.268H12.4692H12.5282C12.5407 14.262 12.5526 14.2547 12.5636 14.2464C12.5745 14.2383 12.5839 14.2283 12.5912 14.2169C12.5929 14.1999 12.5929 14.1828 12.5912 14.1658V13.5624C12.5931 13.546 12.5931 13.5295 12.5912 13.5132C12.5844 13.5014 12.575 13.4913 12.5636 13.4837C12.5531 13.4746 12.5411 13.4673 12.5282 13.4621C12.5087 13.4593 12.4888 13.4593 12.4692 13.4621H11.9756C11.93 13.4632 11.8864 13.4814 11.8537 13.5132C11.8362 13.5244 11.8214 13.5394 11.8105 13.5571C11.7996 13.5748 11.7928 13.5947 11.7908 13.6154H11.5764V12.6621H12.7839V12.841H11.8006V13.3992C11.8006 13.3815 11.8203 13.3579 11.8557 13.3304C11.8923 13.2993 11.9376 13.2801 11.9855 13.2754Z" fill="#D6D6D6"/>
<path id="Vector_10" d="M14.5343 12.9943H14.3199V12.9452C14.3228 12.9289 14.3228 12.9123 14.3199 12.896C14.314 12.8842 14.3052 12.8741 14.2944 12.8665C14.2835 12.8569 14.2708 12.8496 14.257 12.8449C14.2381 12.8421 14.2189 12.8421 14.2 12.8449H13.5805C13.5616 12.8421 13.5424 12.8421 13.5234 12.8449C13.5097 12.8496 13.497 12.8569 13.4861 12.8665C13.4752 12.8741 13.4664 12.8842 13.4605 12.896C13.4587 12.9123 13.4587 12.9288 13.4605 12.9452V13.4542L13.4723 13.4405C13.5326 13.3815 13.5798 13.352 13.6139 13.352H14.316C14.3613 13.3545 14.4044 13.3726 14.4379 13.4031L14.4989 13.4542C14.5183 13.4693 14.534 13.4887 14.5446 13.5109C14.5552 13.5331 14.5604 13.5574 14.5599 13.582V14.2208C14.5602 14.2454 14.5549 14.2697 14.5444 14.2919C14.5338 14.314 14.5182 14.3334 14.4989 14.3486L14.4379 14.3997C14.4044 14.4303 14.3613 14.4483 14.316 14.4508H13.4861C13.4408 14.4483 13.3977 14.4303 13.3642 14.3997L13.3032 14.3486C13.2839 14.3334 13.2683 14.314 13.2577 14.2919C13.2471 14.2697 13.2418 14.2454 13.2422 14.2208V12.8921C13.2417 12.8675 13.2469 12.8431 13.2575 12.821C13.2681 12.7988 13.2837 12.7794 13.3032 12.7643L13.3642 12.7132C13.3977 12.6826 13.4408 12.6646 13.4861 12.6621H14.2904C14.3358 12.6646 14.3788 12.6826 14.4124 12.7132L14.4733 12.7643C14.4928 12.7794 14.5084 12.7988 14.519 12.821C14.5296 12.8431 14.5348 12.8675 14.5343 12.8921V12.9943ZM14.3376 14.1737V13.6429C14.3405 13.6267 14.3405 13.6101 14.3376 13.5938C14.3331 13.5817 14.3257 13.5709 14.316 13.5624C14.3051 13.5528 14.2924 13.5454 14.2786 13.5407C14.2591 13.5378 14.2392 13.5378 14.2196 13.5407H13.6454C13.6238 13.5381 13.602 13.5381 13.5805 13.5407C13.5588 13.5505 13.5378 13.5616 13.5176 13.5741C13.4782 13.5977 13.4586 13.6194 13.4566 13.639V14.1717C13.4548 14.1887 13.4548 14.2058 13.4566 14.2228C13.4566 14.2228 13.4684 14.2385 13.4822 14.2523C13.4936 14.2612 13.5061 14.2684 13.5195 14.2739C13.5385 14.2758 13.5576 14.2758 13.5765 14.2739H14.2157C14.2353 14.2758 14.2551 14.2758 14.2747 14.2739C14.2881 14.2684 14.3007 14.2612 14.3121 14.2523C14.3258 14.2385 14.3357 14.2307 14.3376 14.2228C14.3471 14.2051 14.3531 14.1858 14.3553 14.1658L14.3376 14.1737Z" fill="#D6D6D6"/>
<path id="Vector_11" d="M15.0679 14.4508L15.9077 12.8921C15.9169 12.8712 15.9319 12.8535 15.9509 12.841H14.8438V12.6621H16.1555V12.8587L15.302 14.4508H15.0679Z" fill="#D6D6D6"/>
<path id="Vector_12" d="M16.5752 13.6606L16.6952 13.5604C16.7151 13.5416 16.7407 13.5299 16.7679 13.527V13.5152C16.7407 13.5123 16.7151 13.5005 16.6952 13.4818L16.6106 13.4149C16.598 13.4044 16.5879 13.3911 16.5811 13.3762C16.5743 13.3612 16.571 13.3449 16.5713 13.3284V12.8921C16.5707 12.8675 16.576 12.8431 16.5866 12.821C16.5972 12.7988 16.6128 12.7794 16.6322 12.7643L16.6932 12.7132C16.7273 12.6822 16.7711 12.6641 16.8171 12.6621H17.6038C17.6498 12.6641 17.6936 12.6822 17.7276 12.7132L17.7886 12.7643C17.8081 12.7794 17.8237 12.7988 17.8343 12.821C17.8449 12.8431 17.8501 12.8675 17.8496 12.8921V13.3284C17.85 13.3451 17.8464 13.3616 17.8393 13.3766C17.8321 13.3916 17.8215 13.4048 17.8083 13.4149L17.7237 13.4818C17.7045 13.5005 17.6796 13.5123 17.6529 13.5152V13.527C17.6796 13.5299 17.7045 13.5417 17.7237 13.5604L17.8456 13.6606C17.859 13.6734 17.8691 13.6891 17.8753 13.7065C17.8814 13.724 17.8834 13.7426 17.881 13.7609V14.2208C17.881 14.2455 17.8754 14.2699 17.8645 14.292C17.8535 14.3142 17.8377 14.3335 17.8181 14.3486C17.8063 14.3486 17.7847 14.3741 17.7571 14.3997C17.7236 14.4303 17.6805 14.4483 17.6352 14.4508H16.7856C16.7396 14.4488 16.6958 14.4307 16.6617 14.3997C16.6429 14.3809 16.6225 14.3638 16.6008 14.3486C16.5818 14.3331 16.5665 14.3137 16.5559 14.2916C16.5454 14.2695 16.5399 14.2453 16.5398 14.2208V13.7589C16.5378 13.7409 16.5399 13.7227 16.546 13.7056C16.5522 13.6886 16.5622 13.6732 16.5752 13.6606ZM17.4661 13.6331H16.9489C16.9319 13.6303 16.9147 13.6303 16.8977 13.6331C16.8815 13.64 16.8668 13.6501 16.8545 13.6626L16.7974 13.7078C16.7829 13.718 16.7703 13.7307 16.7601 13.7452C16.757 13.7634 16.757 13.782 16.7601 13.8002V14.1619C16.7583 14.1789 16.7583 14.196 16.7601 14.213C16.7674 14.2244 16.7767 14.2344 16.7876 14.2425C16.7987 14.2508 16.8105 14.258 16.823 14.2641C16.8426 14.266 16.8624 14.266 16.882 14.2641H17.5369H17.5959C17.6084 14.258 17.6202 14.2508 17.6313 14.2425C17.6422 14.2344 17.6515 14.2244 17.6588 14.213C17.6606 14.196 17.6606 14.1789 17.6588 14.1619V13.8041C17.6619 13.7859 17.6619 13.7673 17.6588 13.7491C17.6482 13.7342 17.6349 13.7215 17.6195 13.7117L17.5644 13.6665C17.5517 13.6544 17.5371 13.6445 17.5212 13.637C17.5032 13.6326 17.4845 13.6313 17.4661 13.6331ZM17.5035 12.8469H16.9154C16.8959 12.8439 16.876 12.8439 16.8564 12.8469C16.8431 12.8512 16.831 12.8586 16.821 12.8685C16.8053 12.8803 16.7955 12.8901 16.7935 12.898C16.7917 12.9143 16.7917 12.9308 16.7935 12.9471V13.2793C16.7904 13.2982 16.7904 13.3174 16.7935 13.3363C16.7935 13.3363 16.8073 13.356 16.8289 13.3737L16.8938 13.4267C16.9064 13.4371 16.9203 13.4457 16.9351 13.4523C16.9547 13.4541 16.9745 13.4541 16.9941 13.4523H17.4248C17.4444 13.454 17.4642 13.454 17.4838 13.4523C17.4982 13.446 17.5115 13.4373 17.5231 13.4267L17.59 13.3737C17.6116 13.356 17.6234 13.3442 17.6254 13.3363C17.6285 13.3174 17.6285 13.2982 17.6254 13.2793V12.9452C17.6272 12.9288 17.6272 12.9123 17.6254 12.896C17.6254 12.896 17.6136 12.8783 17.5979 12.8665C17.5873 12.8574 17.5754 12.8501 17.5625 12.8449C17.5437 12.8408 17.5245 12.8395 17.5054 12.841L17.5035 12.8469Z" fill="#D6D6D6"/>
<path id="Vector_13" d="M20.256 14.1186H20.4724V14.1658C20.4696 14.1827 20.4696 14.2 20.4724 14.2169C20.4724 14.2169 20.4724 14.2326 20.4979 14.2464C20.509 14.2547 20.5209 14.262 20.5333 14.268C20.5536 14.2698 20.574 14.2698 20.5943 14.268H21.2059C21.2255 14.2699 21.2453 14.2699 21.2649 14.268C21.2779 14.2629 21.2898 14.2556 21.3003 14.2464C21.316 14.2326 21.3259 14.2248 21.3278 14.2169C21.3306 14.2 21.3306 14.1827 21.3278 14.1658V13.6587L21.3141 13.6705C21.2551 13.7294 21.2079 13.7609 21.1744 13.7609H20.4783C20.4329 13.7584 20.3899 13.7404 20.3563 13.7098L20.2954 13.6587C20.276 13.6435 20.2605 13.6241 20.2499 13.6019C20.2393 13.5798 20.234 13.5555 20.2344 13.5309V12.8921C20.2339 12.8675 20.2391 12.8431 20.2497 12.821C20.2603 12.7988 20.2759 12.7794 20.2954 12.7643L20.3563 12.7132C20.3892 12.6816 20.4327 12.6634 20.4783 12.6621H21.3062C21.3522 12.6641 21.3961 12.6822 21.4301 12.7132L21.4911 12.7643C21.5105 12.7794 21.5262 12.7988 21.5368 12.821C21.5473 12.8431 21.5526 12.8675 21.552 12.8921V14.2208C21.5524 14.2454 21.5471 14.2697 21.5365 14.2919C21.526 14.314 21.5104 14.3334 21.4911 14.3486L21.4301 14.3997C21.3961 14.4307 21.3522 14.4488 21.3062 14.4508H20.5038C20.4585 14.4483 20.4154 14.4303 20.3819 14.3997L20.3209 14.3486C20.3014 14.3335 20.2855 14.3142 20.2746 14.292C20.2637 14.2699 20.258 14.2455 20.258 14.2208L20.256 14.1186ZM20.4527 12.9393V13.47C20.4499 13.4869 20.4499 13.5042 20.4527 13.5211C20.4586 13.5329 20.4674 13.543 20.4783 13.5506C20.4897 13.5595 20.5022 13.5667 20.5156 13.5722C20.5346 13.5741 20.5537 13.5741 20.5727 13.5722H21.1489C21.1704 13.5751 21.1923 13.5751 21.2138 13.5722C21.2359 13.5633 21.257 13.5521 21.2767 13.5388C21.316 13.5152 21.3357 13.4936 21.3377 13.4759V12.9452C21.3405 12.9289 21.3405 12.9123 21.3377 12.896C21.3377 12.896 21.3259 12.8783 21.3101 12.8665C21.3002 12.8567 21.2881 12.8493 21.2747 12.8449C21.2552 12.8419 21.2353 12.8419 21.2157 12.8449H20.5766C20.5577 12.8421 20.5385 12.8421 20.5196 12.8449C20.5058 12.8496 20.4931 12.8569 20.4822 12.8665C20.4713 12.8741 20.4625 12.8842 20.4566 12.896C20.4478 12.9112 20.4418 12.9278 20.4389 12.9452L20.4527 12.9393Z" fill="#D6D6D6"/>
<path id="Vector_14" d="M22.2497 12.6621H23.2625C23.3082 12.6632 23.3517 12.6814 23.3845 12.7132L23.4474 12.7643C23.4665 12.7797 23.4819 12.7991 23.4925 12.8213C23.503 12.8434 23.5085 12.8676 23.5084 12.8921V14.2208C23.5083 14.2453 23.5028 14.2695 23.4923 14.2916C23.4817 14.3137 23.4664 14.3331 23.4474 14.3486L23.3845 14.3997C23.3509 14.4303 23.3079 14.4483 23.2625 14.4508H22.2497C22.2044 14.4483 22.1613 14.4303 22.1278 14.3997L22.0668 14.3486C22.0473 14.3335 22.0314 14.3142 22.0205 14.292C22.0096 14.2699 22.0039 14.2455 22.0039 14.2208V12.8921C22.0038 12.8674 22.0094 12.843 22.0203 12.8208C22.0312 12.7986 22.0471 12.7793 22.0668 12.7643L22.1278 12.7132C22.1613 12.6826 22.2044 12.6646 22.2497 12.6621ZM23.294 14.1658V12.9452C23.2958 12.9288 23.2958 12.9123 23.294 12.896C23.2872 12.8842 23.2778 12.8741 23.2665 12.8665C23.2559 12.8574 23.244 12.8501 23.2311 12.8449C23.2115 12.8421 23.1916 12.8421 23.1721 12.8449H22.3481C22.3285 12.8421 22.3086 12.8421 22.2891 12.8449C22.2762 12.8501 22.2642 12.8574 22.2537 12.8665C22.2422 12.8734 22.2333 12.8837 22.2281 12.896C22.2253 12.9123 22.2253 12.9289 22.2281 12.9452V14.1658C22.2253 14.1827 22.2253 14.2 22.2281 14.2169C22.2281 14.2169 22.2281 14.2326 22.2537 14.2464C22.2647 14.2547 22.2766 14.262 22.2891 14.268C22.3087 14.2697 22.3284 14.2697 22.3481 14.268H23.1721H23.2311C23.2435 14.262 23.2554 14.2547 23.2665 14.2464C23.2774 14.2383 23.2867 14.2283 23.294 14.2169C23.2958 14.1999 23.2958 14.1828 23.294 14.1658Z" fill="#D6D6D6"/>
<path id="Vector_15" d="M24.0028 13.1693L23.8828 13.0455L24.2427 12.6523H24.5416V14.441H24.345V12.8686C24.3417 12.8471 24.3417 12.8252 24.345 12.8037L24.0028 13.1693Z" fill="#D6D6D6"/>
<path id="Vector_16" d="M24.9243 14.4508V14.1796C24.9211 14.1594 24.9211 14.1388 24.9243 14.1186C24.9365 14.1022 24.951 14.0876 24.9675 14.0754L25.8151 13.3009C25.8327 13.2866 25.8469 13.2685 25.8564 13.2479C25.8604 13.2231 25.8604 13.1979 25.8564 13.1732V12.9452C25.8582 12.9288 25.8582 12.9123 25.8564 12.896C25.8564 12.896 25.8446 12.8783 25.8289 12.8665C25.8183 12.8574 25.8064 12.8501 25.7935 12.8449C25.7739 12.8419 25.754 12.8419 25.7345 12.8449H25.29C25.2705 12.8419 25.2506 12.8419 25.231 12.8449C25.2181 12.8501 25.2062 12.8574 25.1956 12.8665C25.1799 12.8783 25.1701 12.8882 25.1681 12.896C25.1663 12.9123 25.1663 12.9288 25.1681 12.9452V12.9943H24.9538V12.8921C24.9532 12.8675 24.9584 12.8431 24.969 12.821C24.9796 12.7988 24.9953 12.7794 25.0147 12.7643L25.0757 12.7132C25.1097 12.6822 25.1536 12.6641 25.1996 12.6621H25.8427C25.8887 12.6641 25.9325 12.6822 25.9666 12.7132L26.0275 12.7643C26.047 12.7794 26.0626 12.7988 26.0732 12.821C26.0838 12.8431 26.089 12.8675 26.0885 12.8921V13.2518C26.0924 13.2765 26.0924 13.3017 26.0885 13.3265C26.0808 13.3482 26.0663 13.3668 26.0472 13.3796L25.1897 14.152C25.1725 14.1665 25.1579 14.1838 25.1465 14.2031C25.1422 14.2246 25.1422 14.2466 25.1465 14.268V14.2798H26.0924V14.4587L24.9243 14.4508Z" fill="#D6D6D6"/>
<path id="Vector_17" d="M29.4231 13.5447L29.5234 13.6272C29.5415 13.6389 29.5569 13.6543 29.5686 13.6724C29.5719 13.6979 29.5719 13.7236 29.5686 13.7491V14.2208C29.5729 14.2442 29.5729 14.2682 29.5686 14.2916C29.5574 14.3111 29.5435 14.329 29.5273 14.3447L29.4821 14.3918C29.4671 14.4092 29.4487 14.4234 29.4281 14.4335C29.4075 14.4437 29.3851 14.4495 29.3621 14.4508H28.6365C28.5905 14.4488 28.5466 14.4307 28.5126 14.3997L28.4516 14.3486C28.4323 14.3334 28.4167 14.314 28.4061 14.2919C28.3956 14.2697 28.3903 14.2454 28.3906 14.2208V14.1186H28.605V14.1658C28.6032 14.1828 28.6032 14.1999 28.605 14.2169C28.605 14.2169 28.6168 14.2326 28.6325 14.2464C28.6436 14.2547 28.6555 14.262 28.6679 14.268C28.6876 14.2699 28.7073 14.2699 28.7269 14.268H29.2324C29.252 14.2699 29.2717 14.2699 29.2913 14.268C29.3038 14.262 29.3157 14.2547 29.3267 14.2464C29.3425 14.2326 29.3523 14.2248 29.3543 14.2169C29.356 14.1999 29.356 14.1828 29.3543 14.1658V13.7727C29.3543 13.7541 29.35 13.7357 29.3419 13.719C29.3337 13.7024 29.3218 13.6878 29.3071 13.6764L29.2697 13.6429C29.2542 13.6271 29.2363 13.6139 29.2166 13.6036C29.195 13.6018 29.1733 13.6018 29.1517 13.6036H28.7427V13.4385H29.1163C29.1372 13.4413 29.1584 13.4413 29.1793 13.4385C29.1999 13.429 29.2186 13.4157 29.2343 13.3992L29.2717 13.3697C29.2893 13.3574 29.3046 13.3421 29.3169 13.3245C29.3203 13.3037 29.3203 13.2824 29.3169 13.2616V12.9452C29.3197 12.9289 29.3197 12.9123 29.3169 12.896C29.311 12.8842 29.3022 12.8741 29.2913 12.8665C29.2808 12.8574 29.2688 12.8501 29.2559 12.8449C29.2364 12.8421 29.2165 12.8421 29.197 12.8449H28.7741C28.7539 12.842 28.7334 12.842 28.7132 12.8449C28.7003 12.8501 28.6883 12.8574 28.6778 12.8665C28.662 12.8783 28.6522 12.8882 28.6502 12.896C28.6484 12.9123 28.6484 12.9288 28.6502 12.9452V12.9943H28.4398V12.8921C28.4393 12.8675 28.4445 12.8431 28.4551 12.821C28.4657 12.7988 28.4813 12.7794 28.5008 12.7643L28.5617 12.7132C28.5958 12.6822 28.6396 12.6641 28.6856 12.6621H29.3051C29.3507 12.6634 29.3942 12.6816 29.427 12.7132L29.488 12.7643C29.5075 12.7794 29.5231 12.7988 29.5337 12.821C29.5443 12.8431 29.5495 12.8675 29.549 12.8921V13.3108C29.5523 13.329 29.5523 13.3476 29.549 13.3658C29.5386 13.3814 29.5252 13.3947 29.5096 13.4051L29.4349 13.466C29.4155 13.4844 29.3907 13.4961 29.3641 13.4995V13.5132C29.3863 13.518 29.4068 13.5289 29.4231 13.5447Z" fill="#D6D6D6"/>
<path id="Vector_18" d="M30.8343 13.3521H31.0487V13.8632H31.2945V14.042H31.0487V14.4509H30.8343V14.042H29.9297V13.8317L30.8048 12.6523H31.0448L30.1932 13.7944C30.1824 13.8131 30.1677 13.8292 30.1499 13.8415V13.8533H30.8343V13.3521Z" fill="#D6D6D6"/>
<path id="Vector_19" d="M32.087 13.2754H32.6652C32.7108 13.2766 32.7543 13.2948 32.7871 13.3265L32.8501 13.3776C32.8692 13.3929 32.8846 13.4124 32.8951 13.4345C32.9057 13.4566 32.9111 13.4808 32.911 13.5054V14.2208C32.9101 14.246 32.9034 14.2705 32.8914 14.2927C32.8795 14.3148 32.8627 14.3339 32.8422 14.3486L32.7793 14.3997C32.7458 14.4303 32.7027 14.4483 32.6574 14.4508H31.8904C31.8444 14.4488 31.8005 14.4307 31.7665 14.3997L31.7055 14.3486C31.6862 14.3334 31.6706 14.314 31.66 14.2919C31.6495 14.2697 31.6442 14.2454 31.6446 14.2208V14.1186H31.8589V14.1658C31.8571 14.1828 31.8571 14.1999 31.8589 14.2169C31.8662 14.2283 31.8756 14.2383 31.8864 14.2464C31.8975 14.2547 31.9094 14.262 31.9218 14.268C31.9415 14.2699 31.9612 14.2699 31.9808 14.268H32.559C32.5786 14.2697 32.5984 14.2697 32.618 14.268C32.6305 14.262 32.6424 14.2547 32.6534 14.2464C32.6691 14.2326 32.677 14.2248 32.679 14.2169C32.6818 14.2 32.6818 14.1827 32.679 14.1658V13.5624C32.682 13.5461 32.682 13.5295 32.679 13.5132C32.6738 13.5009 32.6649 13.4906 32.6534 13.4837C32.6429 13.4746 32.6309 13.4673 32.618 13.4621C32.5985 13.4593 32.5786 13.4593 32.559 13.4621H32.0654C32.0194 13.4641 31.9755 13.4822 31.9415 13.5132C31.9245 13.5248 31.9103 13.54 31.8998 13.5576C31.8892 13.5753 31.8827 13.595 31.8805 13.6154H31.6662V12.6621H32.8678V12.841H31.8845V13.3992H31.8943C31.8943 13.3815 31.9159 13.3579 31.9513 13.3304C31.9896 13.2982 32.0371 13.2789 32.087 13.2754Z" fill="#D6D6D6"/>
<path id="Vector_20" d="M34.6358 12.9943H34.4136V12.9452C34.4164 12.9289 34.4164 12.9123 34.4136 12.896C34.4136 12.896 34.4018 12.8783 34.3861 12.8665C34.3761 12.8567 34.364 12.8493 34.3507 12.8449C34.3311 12.8419 34.3112 12.8419 34.2917 12.8449H33.6801C33.6605 12.8419 33.6406 12.8419 33.6211 12.8449C33.6073 12.8496 33.5946 12.8569 33.5837 12.8665C33.5728 12.8741 33.5641 12.8842 33.5581 12.896C33.5553 12.9123 33.5553 12.9289 33.5581 12.9452V13.4542L33.5719 13.4405C33.6309 13.3815 33.6781 13.352 33.7115 13.352H34.4136C34.4589 13.3545 34.502 13.3726 34.5355 13.4031L34.5965 13.4542C34.616 13.4693 34.6316 13.4887 34.6422 13.5109C34.6528 13.5331 34.658 13.5574 34.6575 13.582V14.2208C34.6596 14.2443 34.6564 14.2679 34.6482 14.29C34.6401 14.3121 34.6271 14.3321 34.6103 14.3486L34.5493 14.3997C34.5158 14.4303 34.4727 14.4483 34.4274 14.4508H33.5876C33.5423 14.4483 33.4992 14.4303 33.4657 14.3997L33.4048 14.3486C33.3854 14.3334 33.3699 14.314 33.3593 14.2919C33.3487 14.2697 33.3434 14.2454 33.3438 14.2208V12.8921C33.3433 12.8675 33.3485 12.8431 33.3591 12.821C33.3697 12.7988 33.3853 12.7794 33.4048 12.7643L33.4657 12.7132C33.4992 12.6826 33.5423 12.6646 33.5876 12.6621H34.39C34.436 12.6641 34.4799 12.6822 34.5139 12.7132L34.5749 12.7643C34.5943 12.7794 34.61 12.7988 34.6206 12.821C34.6311 12.8431 34.6364 12.8675 34.6358 12.8921V12.9943ZM34.4392 14.1737V13.6429C34.442 13.6267 34.442 13.6101 34.4392 13.5938C34.4336 13.5813 34.4247 13.5704 34.4136 13.5624C34.4027 13.5528 34.39 13.5454 34.3763 13.5407C34.3573 13.538 34.3381 13.538 34.3192 13.5407H33.743C33.7215 13.538 33.6997 13.538 33.6781 13.5407C33.6607 13.5471 33.6436 13.5543 33.627 13.5624C33.5876 13.5859 33.568 13.6076 33.566 13.6272V14.1599C33.5632 14.1768 33.5632 14.1941 33.566 14.211C33.566 14.211 33.5778 14.2267 33.5916 14.2405C33.603 14.2494 33.6156 14.2567 33.6289 14.2621C33.6486 14.264 33.6683 14.264 33.6879 14.2621H34.3271C34.3461 14.264 34.3652 14.264 34.3841 14.2621C34.3975 14.2567 34.4101 14.2494 34.4215 14.2405C34.4353 14.2267 34.4451 14.2189 34.4471 14.211C34.4492 14.196 34.4492 14.1808 34.4471 14.1658L34.4392 14.1737Z" fill="#D6D6D6"/>
<path id="Vector_21" d="M4.82498 20.0233C4.81497 19.9902 4.80967 19.9558 4.80925 19.9211V18.8086H4.98821V20.3005H4.80925L4.0226 19.1034C4.03356 19.1364 4.03888 19.1709 4.03834 19.2056V20.2985H3.85938V18.8086H4.03834L4.82498 20.0233Z" fill="#D6D6D6"/>
<path id="Vector_22" d="M6.08705 20.2174C6.08705 20.2331 6.07132 20.2508 6.03985 20.2705C6.02298 20.2812 6.00521 20.2904 5.98675 20.298C5.96976 20.2998 5.95262 20.2998 5.93562 20.298H5.56393C5.5256 20.2971 5.48905 20.2816 5.46167 20.2548L5.41054 20.2135C5.3942 20.2007 5.38108 20.1842 5.3722 20.1655C5.36333 20.1467 5.35895 20.1261 5.35941 20.1054V19.8538C5.3591 19.8333 5.36356 19.8131 5.37244 19.7947C5.38131 19.7763 5.39436 19.7601 5.41054 19.7476L5.46167 19.7064C5.48905 19.6795 5.5256 19.6641 5.56393 19.6631H5.99659L6.02412 19.6828C6.03098 19.6875 6.0368 19.6937 6.04119 19.7008C6.04559 19.7079 6.04848 19.7158 6.04969 19.7241V19.4725C6.051 19.4587 6.051 19.4449 6.04969 19.4312C6.04343 19.4219 6.03541 19.4138 6.02609 19.4076C6.01732 19.4001 6.00735 19.3941 5.99659 19.3899C5.98032 19.3871 5.96369 19.3871 5.94742 19.3899H5.6072C5.59029 19.3869 5.57298 19.3869 5.55607 19.3899C5.53642 19.3993 5.51848 19.4119 5.50297 19.4272L5.37514 19.3191L5.42627 19.2779C5.44221 19.2631 5.46007 19.2505 5.47937 19.2405C5.49628 19.2375 5.51359 19.2375 5.5305 19.2405H6.03199C6.07024 19.2418 6.10666 19.2572 6.13425 19.2838L6.18538 19.325C6.20172 19.3378 6.21484 19.3543 6.22372 19.3731C6.23259 19.3918 6.23697 19.4124 6.23651 19.4331V20.07C6.23479 20.0837 6.23479 20.0976 6.23651 20.1113C6.24183 20.1207 6.24923 20.1288 6.25815 20.1349C6.26813 20.1411 6.27627 20.15 6.28175 20.1604C6.28175 20.1604 6.28175 20.1801 6.28175 20.2017V20.3059H6.20701C6.19011 20.309 6.17279 20.309 6.15588 20.3059C6.14106 20.3003 6.12763 20.2916 6.11655 20.2803C6.09688 20.258 6.08705 20.2371 6.08705 20.2174ZM5.53837 19.899V20.0661C5.53692 20.0798 5.53692 20.0936 5.53837 20.1073C5.54397 20.1172 5.55212 20.1253 5.56197 20.1309C5.57045 20.1388 5.5805 20.1449 5.59147 20.1486C5.60772 20.1516 5.62438 20.1516 5.64063 20.1486H5.90219H5.95529C5.97325 20.1413 5.99039 20.132 6.00642 20.1211C6.02373 20.1125 6.03911 20.1004 6.05165 20.0857C6.05491 20.0722 6.05491 20.058 6.05165 20.0444V19.899C6.0531 19.8853 6.0531 19.8714 6.05165 19.8577C6.04539 19.8484 6.03738 19.8404 6.02805 19.8341C6.01976 19.8255 6.00969 19.8188 5.99855 19.8145H5.59343C5.58205 19.8183 5.57188 19.8251 5.56393 19.8341C5.55409 19.8397 5.54593 19.8479 5.54034 19.8577C5.53823 19.8714 5.53757 19.8852 5.53837 19.899Z" fill="#D6D6D6"/>
<path id="Vector_23" d="M7.37026 19.3379C7.37026 19.3261 7.38402 19.3104 7.41156 19.2907L7.44302 19.2672L7.49415 19.2396H7.54725H7.88551C7.92384 19.2406 7.96039 19.256 7.98777 19.2829L8.0389 19.3242C8.05524 19.337 8.06836 19.3534 8.07724 19.3722C8.08612 19.3909 8.0905 19.4115 8.09004 19.4323V20.305H7.91107V19.4716C7.91239 19.4579 7.91239 19.444 7.91107 19.4303C7.90548 19.4205 7.89732 19.4123 7.88748 19.4067C7.87899 19.3988 7.86894 19.3928 7.85798 19.389C7.84171 19.3862 7.82508 19.3862 7.80881 19.389H7.58068H7.52955C7.5111 19.3967 7.49333 19.4059 7.47645 19.4165C7.44302 19.4362 7.42729 19.4559 7.42532 19.4716V20.3011H7.24636V19.4716C7.24796 19.4579 7.24796 19.444 7.24636 19.4303C7.24105 19.4209 7.23365 19.4128 7.22473 19.4067L7.19523 19.389C7.17896 19.3862 7.16233 19.3862 7.14607 19.389H6.92974H6.87861C6.86015 19.3967 6.84239 19.4059 6.82551 19.4165C6.80856 19.4257 6.79328 19.4377 6.78028 19.4519C6.77702 19.4655 6.77702 19.4796 6.78028 19.4932V20.3011H6.60132V19.4716C6.60263 19.4579 6.60263 19.444 6.60132 19.4303C6.59506 19.421 6.58704 19.413 6.57772 19.4067C6.56819 19.4005 6.56067 19.3916 6.55608 19.3812C6.55422 19.3675 6.55422 19.3536 6.55608 19.3399V19.2357H6.63081C6.64839 19.2328 6.66634 19.2328 6.68391 19.2357C6.69782 19.2429 6.71099 19.2515 6.72324 19.2613C6.74094 19.2739 6.75295 19.2929 6.75668 19.3143C6.75668 19.2986 6.77241 19.2809 6.80388 19.2613C6.82075 19.2506 6.83852 19.2414 6.85697 19.2337C6.87397 19.232 6.89111 19.232 6.90811 19.2337H7.22866C7.26692 19.2351 7.30333 19.2505 7.33093 19.277C7.34878 19.2938 7.36228 19.3147 7.37026 19.3379Z" fill="#D6D6D6"/>
<path id="Vector_24" d="M9.15394 20.1071L9.28177 20.2152L9.23064 20.2565C9.21513 20.2718 9.19718 20.2844 9.17754 20.2938C9.16063 20.2969 9.14331 20.2969 9.1264 20.2938H8.55806C8.5192 20.2926 8.48213 20.2772 8.45383 20.2506L8.40269 20.2093C8.38669 20.1962 8.3738 20.1797 8.36496 20.161C8.35611 20.1423 8.35154 20.1219 8.35156 20.1012V19.427C8.35154 19.4063 8.35611 19.3859 8.36496 19.3672C8.3738 19.3485 8.38669 19.332 8.40269 19.3189L8.45383 19.2776C8.48213 19.251 8.5192 19.2356 8.55806 19.2344H9.05364C9.09149 19.2375 9.12734 19.2526 9.1559 19.2776L9.209 19.3189C9.22558 19.3315 9.23887 19.3479 9.24777 19.3667C9.25667 19.3855 9.26091 19.4062 9.26013 19.427V19.8634H8.53052V20.0599C8.5288 20.0736 8.5288 20.0875 8.53052 20.1012C8.53612 20.111 8.54428 20.1192 8.55412 20.1248C8.5626 20.1327 8.57266 20.1387 8.58362 20.1425C8.59986 20.1456 8.61655 20.1456 8.63279 20.1425H9.04381C9.06071 20.1456 9.07804 20.1456 9.09494 20.1425C9.11653 20.1342 9.1365 20.1223 9.15394 20.1071ZM9.08117 19.714V19.4702C9.08378 19.4566 9.08378 19.4426 9.08117 19.429C9.07586 19.4196 9.06846 19.4115 9.05954 19.4054C9.05106 19.3975 9.04101 19.3915 9.03004 19.3877C9.01377 19.3849 8.99714 19.3849 8.98088 19.3877H8.63672C8.62048 19.3846 8.60379 19.3846 8.58756 19.3877C8.57659 19.3915 8.56654 19.3975 8.55806 19.4054C8.54821 19.411 8.54006 19.4191 8.53446 19.429C8.53286 19.4427 8.53286 19.4565 8.53446 19.4702V19.7238L9.08117 19.714Z" fill="#D6D6D6"/>
<path id="Vector_25" d="M10.8156 19.6184H10.3082C10.2699 19.6171 10.2335 19.6017 10.2059 19.5752L10.1489 19.528C10.1353 19.5179 10.1242 19.5049 10.1164 19.4899C10.1085 19.475 10.1042 19.4584 10.1037 19.4415V19.0012C10.1034 18.9808 10.1078 18.9605 10.1167 18.9421C10.1256 18.9237 10.1386 18.9076 10.1548 18.8951L10.2059 18.8518C10.234 18.8261 10.2701 18.8108 10.3082 18.8086H10.8746C10.9127 18.8105 10.9489 18.8258 10.9768 18.8518L11.028 18.8951C11.0447 18.9072 11.0583 18.9231 11.0676 18.9416C11.0768 18.9601 11.0815 18.9806 11.0811 19.0012V19.0857H10.9001V19.0464C10.9016 19.0327 10.9016 19.0189 10.9001 19.0052C10.9001 19.0052 10.8903 18.9894 10.8765 18.9796C10.8681 18.9717 10.858 18.9657 10.847 18.9619C10.8307 18.96 10.8142 18.96 10.7979 18.9619H10.3869C10.3705 18.9601 10.354 18.9601 10.3377 18.9619L10.3082 18.9796C10.2987 18.9859 10.2911 18.9947 10.2866 19.0052C10.2847 19.0189 10.2847 19.0327 10.2866 19.0464V19.3825C10.2847 19.3962 10.2847 19.4101 10.2866 19.4238C10.2919 19.4332 10.2993 19.4413 10.3082 19.4474C10.3168 19.4556 10.3268 19.4622 10.3377 19.4671H10.8962C10.9343 19.4689 10.9706 19.4843 10.9985 19.5103L11.0496 19.5536C11.066 19.5659 11.0792 19.5819 11.0881 19.6004C11.097 19.6189 11.1014 19.6392 11.1007 19.6597V20.1059C11.1012 20.1266 11.0968 20.1472 11.0879 20.166C11.0791 20.1847 11.0659 20.2012 11.0496 20.214L10.9985 20.2553C10.9711 20.2821 10.9345 20.2976 10.8962 20.2985H10.2866C10.2484 20.2968 10.2121 20.2815 10.1843 20.2553L10.1332 20.214C10.1172 20.2009 10.1043 20.1844 10.0954 20.1657C10.0866 20.147 10.082 20.1266 10.082 20.1059V20.0214H10.261V20.0626C10.2593 20.0764 10.2593 20.0902 10.261 20.1039C10.2663 20.1133 10.2737 20.1214 10.2826 20.1275L10.3121 20.1452C10.3284 20.148 10.345 20.148 10.3613 20.1452H10.8156C10.8318 20.148 10.8485 20.148 10.8647 20.1452C10.8757 20.1414 10.8858 20.1354 10.8942 20.1275C10.9041 20.1219 10.9122 20.1138 10.9178 20.1039C10.9193 20.0902 10.9193 20.0764 10.9178 20.0626V19.7049C10.9192 19.6905 10.9192 19.676 10.9178 19.6617C10.9122 19.6518 10.9041 19.6437 10.8942 19.6381C10.8858 19.6302 10.8757 19.6241 10.8647 19.6204C10.8485 19.6179 10.832 19.6173 10.8156 19.6184Z" fill="#D6D6D6"/>
<path id="Vector_26" d="M11.9295 20.3017H11.603C11.5647 20.3007 11.5281 20.2853 11.5007 20.2584L11.4496 20.2172C11.4333 20.2043 11.4201 20.1879 11.4113 20.1691C11.4024 20.1504 11.398 20.1298 11.3985 20.1091V19.2363H11.5774V20.0658C11.576 20.0795 11.576 20.0934 11.5774 20.1071C11.583 20.1169 11.5912 20.1251 11.601 20.1307C11.6095 20.1386 11.6196 20.1446 11.6305 20.1484C11.6468 20.1514 11.6634 20.1514 11.6797 20.1484H11.9098H11.9609C11.9798 20.1416 11.9976 20.1324 12.014 20.1208C12.0313 20.1122 12.0467 20.1002 12.0592 20.0855C12.0625 20.0719 12.0625 20.0578 12.0592 20.0442V19.2363H12.2382V20.0658C12.2355 20.0794 12.2355 20.0935 12.2382 20.1071C12.2429 20.1169 12.2505 20.1251 12.2598 20.1307C12.2694 20.1369 12.2769 20.1458 12.2815 20.1562C12.2833 20.1699 12.2833 20.1838 12.2815 20.1975V20.3017H12.2067C12.1892 20.3046 12.1712 20.3046 12.1536 20.3017C12.1393 20.2952 12.126 20.2866 12.1143 20.2761C12.0966 20.2635 12.0846 20.2445 12.0809 20.2231C12.0809 20.2388 12.0651 20.2565 12.0337 20.2761C12.0168 20.2868 11.999 20.296 11.9806 20.3037L11.9295 20.3017Z" fill="#D6D6D6"/>
<path id="Vector_27" d="M12.5469 19.2357H12.6216C12.6392 19.2328 12.6571 19.2328 12.6747 19.2357C12.6882 19.2426 12.7007 19.2512 12.7121 19.2613C12.7357 19.2809 12.7475 19.2986 12.7475 19.3143C12.7475 19.2986 12.7632 19.2809 12.7947 19.2613C12.8115 19.2506 12.8293 19.2414 12.8478 19.2337C12.8648 19.232 12.8819 19.232 12.8989 19.2337H13.0956C13.1337 19.2354 13.17 19.2508 13.1978 19.277L13.249 19.3183L13.1211 19.4264L13.0956 19.4048L13.0661 19.3871C13.0498 19.3842 13.0332 19.3842 13.0169 19.3871H12.9245H12.8733C12.8549 19.3947 12.8371 19.4039 12.8202 19.4146C12.806 19.4276 12.794 19.4429 12.7848 19.4598C12.7816 19.4734 12.7816 19.4875 12.7848 19.5011V20.3089H12.6059V19.4716C12.6075 19.4579 12.6075 19.444 12.6059 19.4303C12.6006 19.4209 12.5932 19.4128 12.5842 19.4067C12.5747 19.4005 12.5672 19.3916 12.5626 19.3812C12.5597 19.3676 12.5597 19.3535 12.5626 19.3399L12.5469 19.2357Z" fill="#D6D6D6"/>
<path id="Vector_28" d="M13.4375 19.2357H13.5122C13.5291 19.2326 13.5465 19.2326 13.5634 19.2357C13.5782 19.2423 13.5921 19.2509 13.6047 19.2613C13.6224 19.2739 13.6344 19.2929 13.6381 19.3143C13.6381 19.2986 13.6538 19.2809 13.6853 19.2613C13.7022 19.2506 13.7199 19.2414 13.7384 19.2337C13.7554 19.232 13.7725 19.232 13.7895 19.2337H14.1671C14.2054 19.2351 14.2418 19.2505 14.2694 19.277L14.3205 19.3183C14.3365 19.3314 14.3494 19.3479 14.3582 19.3666C14.3671 19.3853 14.3717 19.4057 14.3716 19.4264V20.2991H14.2005V19.4716C14.2021 19.4579 14.2021 19.444 14.2005 19.4303C14.1952 19.4209 14.1878 19.4128 14.1789 19.4067L14.1494 19.389C14.1331 19.3862 14.1165 19.3862 14.1002 19.389H13.823H13.7718C13.7534 19.3967 13.7356 19.4059 13.7187 19.4165C13.7014 19.4252 13.686 19.4372 13.6735 19.4519C13.6702 19.4655 13.6702 19.4796 13.6735 19.4932V20.3011H13.4945V19.4716C13.4961 19.4579 13.4961 19.444 13.4945 19.4303C13.4898 19.4205 13.4823 19.4123 13.4729 19.4067C13.4628 19.4011 13.4551 19.392 13.4513 19.3812C13.4494 19.3675 13.4494 19.3536 13.4513 19.3399L13.4375 19.2357Z" fill="#D6D6D6"/>
<path id="Vector_29" d="M15.3839 20.2154C15.3839 20.2311 15.3682 20.2488 15.3367 20.2685C15.3202 20.2786 15.3031 20.2878 15.2856 20.296H15.2325H14.8608C14.8224 20.295 14.7859 20.2796 14.7585 20.2527L14.7074 20.2115C14.6914 20.1984 14.6785 20.1819 14.6696 20.1632C14.6608 20.1445 14.6562 20.124 14.6563 20.1034V19.8518C14.6564 19.8314 14.661 19.8113 14.6699 19.7929C14.6787 19.7746 14.6915 19.7584 14.7074 19.7456L14.7585 19.7043C14.7859 19.6775 14.8224 19.662 14.8608 19.6611H15.2934L15.321 19.6807C15.3281 19.6852 15.3341 19.6913 15.3385 19.6984C15.343 19.7056 15.3457 19.7137 15.3465 19.722V19.4704C15.3478 19.4567 15.3478 19.4429 15.3465 19.4292C15.3409 19.4193 15.3328 19.4112 15.3229 19.4056C15.3144 19.3977 15.3044 19.3916 15.2934 19.3879C15.2772 19.3849 15.2605 19.3849 15.2443 19.3879H14.906C14.8864 19.3854 14.8664 19.3881 14.8482 19.3957C14.8299 19.4033 14.8139 19.4155 14.8018 19.4311L14.674 19.323L14.7251 19.2817C14.7405 19.2671 14.7576 19.2546 14.7762 19.2444C14.7938 19.2415 14.8117 19.2415 14.8293 19.2444H15.3288C15.3672 19.2453 15.4037 19.2608 15.4311 19.2876L15.4822 19.3289C15.4986 19.3417 15.5117 19.3582 15.5206 19.3769C15.5294 19.3957 15.5338 19.4163 15.5334 19.437V20.0739C15.5316 20.0876 15.5316 20.1014 15.5334 20.1151C15.5387 20.1246 15.5461 20.1326 15.555 20.1387C15.5688 20.1387 15.5766 20.1564 15.5786 20.1643C15.58 20.178 15.58 20.1918 15.5786 20.2056V20.3097H15.5058C15.4883 20.3128 15.4703 20.3128 15.4527 20.3097C15.4379 20.3042 15.4245 20.2955 15.4134 20.2842C15.3937 20.258 15.3839 20.235 15.3839 20.2154ZM14.8352 19.897V20.064C14.8325 20.0777 14.8325 20.0917 14.8352 20.1053C14.8352 20.1053 14.8352 20.1191 14.8568 20.1289C14.8653 20.1368 14.8754 20.1428 14.8863 20.1466C14.9026 20.1494 14.9192 20.1494 14.9355 20.1466H15.1951H15.2482C15.2662 20.1392 15.2833 20.13 15.2993 20.1191C15.3166 20.1105 15.332 20.0984 15.3446 20.0837C15.3478 20.0701 15.3478 20.056 15.3446 20.0424V19.897C15.346 19.8832 15.346 19.8694 15.3446 19.8557C15.339 19.8458 15.3308 19.8377 15.321 19.8321C15.313 19.8231 15.3028 19.8163 15.2915 19.8124H14.8903C14.8789 19.8163 14.8687 19.8231 14.8608 19.8321C14.847 19.8321 14.8391 19.8498 14.8391 19.8557C14.8349 19.869 14.8336 19.8831 14.8352 19.897Z" fill="#D6D6D6"/>
<path id="Vector_30" d="M16.6692 19.3368C16.6692 19.325 16.6829 19.3093 16.7105 19.2897L16.7419 19.2661C16.7588 19.2554 16.7766 19.2462 16.795 19.2386C16.812 19.2368 16.8292 19.2368 16.8461 19.2386H17.1864C17.2245 19.2402 17.2608 19.2556 17.2886 19.2818L17.3398 19.3231C17.3558 19.3362 17.3687 19.3527 17.3775 19.3714C17.3863 19.3901 17.3909 19.4105 17.3909 19.4312V20.3039H17.2119V19.4705C17.2135 19.4568 17.2135 19.4429 17.2119 19.4292C17.2066 19.4198 17.1992 19.4117 17.1903 19.4056L17.1608 19.3879C17.1445 19.3852 17.1279 19.3852 17.1116 19.3879H16.8756H16.8245C16.8061 19.3956 16.7883 19.4048 16.7714 19.4155C16.74 19.4351 16.7223 19.4548 16.7203 19.4705V20.3H16.5413V19.4705C16.5426 19.4568 16.5426 19.4429 16.5413 19.4292C16.5357 19.4194 16.5276 19.4112 16.5177 19.4056C16.5092 19.3977 16.4992 19.3917 16.4882 19.3879C16.472 19.3851 16.4553 19.3851 16.4391 19.3879H16.2267H16.1736L16.1205 19.4155C16.104 19.4245 16.0893 19.4365 16.0772 19.4508C16.0737 19.4644 16.0737 19.4786 16.0772 19.4921V20.3H15.8904V19.4705C15.8917 19.4568 15.8917 19.4429 15.8904 19.4292C15.8848 19.4194 15.8766 19.4112 15.8668 19.4056C15.8572 19.3994 15.8497 19.3905 15.8451 19.3801C15.8433 19.3664 15.8433 19.3525 15.8451 19.3388V19.2346H15.9199C15.9375 19.2317 15.9554 19.2317 15.973 19.2346C15.9872 19.2414 16.0004 19.25 16.0123 19.2602C16.0214 19.2661 16.0291 19.2739 16.0349 19.283C16.0406 19.2922 16.0443 19.3025 16.0457 19.3132C16.0457 19.2975 16.0615 19.2798 16.0929 19.2602C16.109 19.2492 16.1261 19.24 16.1441 19.2327H16.1972H16.5197C16.551 19.2365 16.5809 19.2478 16.6069 19.2655C16.6329 19.2833 16.6543 19.3071 16.6692 19.3349V19.3368Z" fill="#D6D6D6"/>
<path id="Vector_31" d="M18.4528 20.1091L18.5806 20.2172L18.5295 20.2584C18.5143 20.2732 18.4971 20.2858 18.4784 20.2958C18.4608 20.2987 18.4428 20.2987 18.4253 20.2958H17.8569C17.8186 20.2948 17.782 20.2794 17.7546 20.2525L17.7035 20.2113C17.6872 20.1985 17.674 20.182 17.6652 20.1632C17.6563 20.1445 17.6519 20.1239 17.6524 20.1032V19.429C17.6519 19.4082 17.6563 19.3876 17.6652 19.3689C17.674 19.3501 17.6872 19.3337 17.7035 19.3208L17.7546 19.2796C17.782 19.2527 17.8186 19.2373 17.8569 19.2363H18.3525C18.3903 19.2394 18.4262 19.2546 18.4548 19.2796L18.5079 19.3208C18.5247 19.3332 18.5382 19.3496 18.5471 19.3684C18.556 19.3873 18.5601 19.4081 18.559 19.429V19.8653H17.8313V20.0619C17.8299 20.0756 17.8299 20.0894 17.8313 20.1032C17.8369 20.113 17.8451 20.1211 17.8549 20.1267C17.8634 20.1346 17.8735 20.1407 17.8844 20.1444C17.9007 20.1474 17.9173 20.1474 17.9336 20.1444H18.3466C18.3642 20.1474 18.3821 20.1474 18.3997 20.1444C18.419 20.1352 18.4369 20.1233 18.4528 20.1091ZM18.38 19.7159V19.4722C18.3813 19.4585 18.3813 19.4447 18.38 19.4309C18.3744 19.4211 18.3663 19.4129 18.3564 19.4073C18.3479 19.3994 18.3379 19.3934 18.3269 19.3896C18.3107 19.3868 18.294 19.3868 18.2778 19.3896H17.9356C17.9193 19.3867 17.9027 19.3867 17.8864 19.3896C17.8754 19.3934 17.8654 19.3994 17.8569 19.4073C17.8471 19.4129 17.8389 19.4211 17.8333 19.4309C17.832 19.4447 17.832 19.4585 17.8333 19.4722V19.7258L18.38 19.7159Z" fill="#D6D6D6"/>
<path id="Vector_32" d="M26.6094 2.60485H26.8572C26.911 2.60047 26.9652 2.60691 27.0166 2.62379C27.0679 2.64067 27.1153 2.66764 27.1561 2.70313C27.2274 2.79018 27.262 2.90158 27.2525 3.01369C27.2629 3.09338 27.246 3.17426 27.2046 3.24314C27.1632 3.31203 27.0996 3.36487 27.0243 3.39305C27.1895 3.42647 27.2721 3.5562 27.2721 3.78617C27.2792 3.89101 27.2469 3.99472 27.1817 4.07708C27.149 4.11146 27.1091 4.13825 27.065 4.15557C27.0208 4.17289 26.9734 4.18032 26.926 4.17733H26.6094V2.60485ZM26.8198 2.76603V3.31246C26.8517 3.31449 26.8837 3.30996 26.9138 3.29914C26.9439 3.28832 26.9715 3.27145 26.9948 3.24956C27.038 3.1899 27.0576 3.1164 27.0499 3.04317C27.0573 2.96731 27.0408 2.89102 27.0027 2.82499C26.9784 2.80234 26.9494 2.78532 26.9178 2.77513C26.8862 2.76494 26.8527 2.76183 26.8198 2.76603ZM26.8198 3.46971V4.01615C26.8842 4.02069 26.948 4.00107 26.9988 3.96111C27.0399 3.90428 27.0588 3.83436 27.0519 3.76455C27.0598 3.68602 27.0411 3.6071 26.9988 3.54047C26.9758 3.51646 26.9479 3.49771 26.917 3.48549C26.8861 3.47328 26.853 3.46789 26.8198 3.46971Z" fill="#D6D6D6"/>
<path id="Vector_33" d="M28.1634 4.17524H27.9667V4.04551C27.9511 4.08592 27.9244 4.12105 27.8895 4.14681C27.8547 4.17257 27.8133 4.18789 27.77 4.19096C27.7338 4.18976 27.6983 4.18027 27.6662 4.16324C27.6342 4.1462 27.6065 4.12207 27.5852 4.09268C27.5162 3.95683 27.4882 3.80386 27.5046 3.65239C27.4966 3.50437 27.5173 3.35621 27.5655 3.21602C27.5813 3.17473 27.6098 3.13953 27.6469 3.1155C27.6841 3.09147 27.7279 3.07987 27.772 3.08236C27.8118 3.08022 27.8512 3.09127 27.8841 3.11381C27.9186 3.14269 27.9479 3.17726 27.9706 3.21602V3.09809H28.1673L28.1634 4.17524ZM27.833 4.01406C27.8841 4.01406 27.9175 3.98261 27.9352 3.92168C27.9565 3.81827 27.9651 3.71266 27.9608 3.60718C27.9645 3.51482 27.9566 3.42237 27.9372 3.33199C27.9334 3.30944 27.9215 3.28904 27.9038 3.27457C27.8861 3.26011 27.8637 3.25258 27.8408 3.25337C27.8179 3.25231 27.7952 3.25886 27.7763 3.27202C27.7575 3.28517 27.7435 3.30418 27.7366 3.3261C27.7122 3.41367 27.7023 3.50462 27.7071 3.59539C27.7034 3.70337 27.7114 3.81144 27.7307 3.91774C27.7464 3.98261 27.7799 4.01406 27.833 4.01406Z" fill="#D6D6D6"/>
<path id="Vector_34" d="M28.6381 3.09388V3.19806C28.6592 3.16107 28.6899 3.13043 28.7269 3.10934C28.7639 3.08825 28.8059 3.07748 28.8485 3.07815C29.0039 3.07815 29.0825 3.16464 29.0825 3.33368V4.17496H28.8859V3.38872C28.8859 3.28258 28.8446 3.22951 28.76 3.22951C28.7428 3.22881 28.7256 3.23219 28.7099 3.23936C28.6941 3.24653 28.6803 3.25729 28.6696 3.27078C28.6445 3.30482 28.632 3.3465 28.6342 3.38872V4.17496H28.4375V3.09388H28.6381Z" fill="#D6D6D6"/>
<path id="Vector_35" d="M30.0889 4.17434H29.8765L29.5756 3.59842V4.17434H29.3789V2.55469H29.5756V3.55714L29.8411 3.09719H30.0535L29.7821 3.58466L30.0889 4.17434Z" fill="#D6D6D6"/>
<path id="Vector_36" d="M31.5032 4.17406H31.3361L30.9428 3.09494V4.17209H30.7461V2.59961H30.9152L31.3085 3.67676V2.60354H31.4954L31.5032 4.17406Z" fill="#D6D6D6"/>
<path id="Vector_37" d="M32.4508 4.17527H32.2542V4.04554C32.2386 4.08595 32.2118 4.12109 32.177 4.14684C32.1422 4.1726 32.1007 4.18792 32.0575 4.19099C32.0212 4.18979 31.9857 4.1803 31.9537 4.16327C31.9216 4.14623 31.8939 4.1221 31.8726 4.09271C31.8043 3.95666 31.777 3.8037 31.794 3.65242C31.7856 3.50454 31.8056 3.35642 31.853 3.21606C31.8691 3.17461 31.898 3.13934 31.9354 3.11533C31.9729 3.09131 32.017 3.07978 32.0614 3.08239C32.1006 3.08024 32.1394 3.09131 32.1716 3.11384C32.206 3.14272 32.2353 3.17729 32.2581 3.21606V3.09812H32.4547L32.4508 4.17527ZM32.1204 4.01409C32.1716 4.01409 32.207 3.98264 32.2227 3.92171C32.244 3.81831 32.2526 3.71269 32.2483 3.60721C32.2513 3.51496 32.2441 3.42266 32.2266 3.33203C32.2224 3.30931 32.2101 3.28887 32.1921 3.27444C32.174 3.26001 32.1514 3.25254 32.1283 3.2534C32.1053 3.25234 32.0826 3.25889 32.0638 3.27205C32.0449 3.2852 32.031 3.30421 32.0241 3.32613C32.0016 3.41403 31.9923 3.50479 31.9965 3.59542C31.9925 3.70333 31.9997 3.81137 32.0182 3.91778C32.0339 3.98264 32.0673 4.01409 32.1204 4.01409Z" fill="#D6D6D6"/>
<path id="Vector_38" d="M33.8356 4.17509H33.639V3.38885C33.639 3.28271 33.5996 3.2316 33.519 3.2316C33.4384 3.2316 33.3872 3.2945 33.3872 3.41833V4.17312H33.1906V3.37509C33.1928 3.33861 33.1808 3.30269 33.1571 3.27484C33.1473 3.26182 33.1345 3.25129 33.1198 3.24412C33.1051 3.23695 33.0889 3.23334 33.0726 3.23357C32.9821 3.23357 32.9388 3.29057 32.9388 3.40457V4.17509H32.7422V3.09794H32.9388V3.19425C32.965 3.15924 32.9988 3.13061 33.0376 3.11052C33.0764 3.09043 33.1193 3.07941 33.163 3.07828C33.2078 3.07658 33.252 3.08868 33.2896 3.11294C33.3273 3.13721 33.3566 3.17246 33.3735 3.21391C33.4002 3.17367 33.4364 3.14062 33.479 3.11765C33.5215 3.09469 33.569 3.08252 33.6173 3.08221C33.7688 3.08221 33.8435 3.1687 33.8435 3.34167L33.8356 4.17509Z" fill="#D6D6D6"/>
<path id="Vector_39" d="M34.7702 3.67172H34.3159C34.3125 3.76092 34.3211 3.85017 34.3415 3.93707C34.3463 3.96327 34.3605 3.98678 34.3816 4.0031C34.4026 4.01943 34.429 4.02741 34.4556 4.02553C34.4744 4.02776 34.4934 4.02403 34.51 4.01486C34.5266 4.00569 34.5399 3.99154 34.548 3.97442C34.5682 3.9225 34.5776 3.86697 34.5755 3.81128H34.7584C34.7584 4.06484 34.6463 4.19064 34.4379 4.19064C34.2294 4.19064 34.1016 4.01373 34.1016 3.65992C34.1016 3.27467 34.2176 3.08204 34.4496 3.08204C34.4921 3.08177 34.5342 3.09037 34.5731 3.1073C34.6121 3.12422 34.647 3.14909 34.6758 3.18032C34.7541 3.3036 34.7874 3.45008 34.7702 3.59506V3.67172ZM34.5735 3.51644C34.5766 3.43828 34.568 3.36011 34.548 3.28449C34.542 3.26428 34.5295 3.2466 34.5124 3.23417C34.4953 3.22174 34.4747 3.21525 34.4536 3.2157C34.4303 3.21419 34.4072 3.22053 34.3879 3.23372C34.3687 3.2469 34.3544 3.26617 34.3474 3.28843C34.3279 3.3628 34.3193 3.4396 34.3218 3.51644H34.5735Z" fill="#D6D6D6"/>
<path id="Vector_40" d="M4.44451 4.22984C4.37771 4.26249 4.3045 4.27994 4.23015 4.28095C4.16155 4.28234 4.09342 4.26942 4.0301 4.24303C3.96678 4.21663 3.90967 4.17733 3.86239 4.12763C3.76013 4.01756 3.70703 3.78758 3.70703 3.43967C3.70703 3.06227 3.76013 2.80871 3.86239 2.67898C3.90519 2.6186 3.96176 2.56928 4.02742 2.53509C4.09308 2.50091 4.16595 2.48286 4.23998 2.48242C4.30628 2.48515 4.37215 2.49436 4.43664 2.50994V2.72419C4.38833 2.70513 4.33712 2.6945 4.28521 2.69274C4.23708 2.69433 4.19015 2.70816 4.14886 2.73292C4.10757 2.75769 4.07327 2.79257 4.04922 2.83426C3.96729 3.00617 3.93332 3.197 3.95089 3.3866C3.9487 3.51799 3.95593 3.64936 3.97252 3.77972C3.98142 3.86158 4.01582 3.93859 4.07085 3.99987C4.09567 4.02707 4.12612 4.04855 4.16008 4.06281C4.19404 4.07706 4.2307 4.08376 4.26751 4.08242C4.32683 4.07938 4.38497 4.06468 4.43861 4.03918L4.44451 4.22984Z" fill="#D6D6D6"/>
<path id="Vector_41" d="M5.23597 3.23367C5.15739 3.22806 5.07919 3.24881 5.01374 3.29264C4.96851 3.32998 4.94688 3.41057 4.94688 3.53834V4.26168H4.71875V3.0548H4.94688V3.23367C4.96703 3.17815 5.00319 3.12985 5.0508 3.09487C5.0984 3.05988 5.15531 3.03978 5.21433 3.03711H5.23007L5.23597 3.23367Z" fill="#D6D6D6"/>
<path id="Vector_42" d="M6.15558 3.69755H5.6482C5.64483 3.79715 5.65342 3.89679 5.67376 3.99436C5.67902 4.02385 5.69496 4.05037 5.71854 4.06886C5.74212 4.08735 5.77168 4.09651 5.80159 4.0946C5.8232 4.09681 5.84497 4.09234 5.86396 4.08179C5.88295 4.07125 5.89825 4.05514 5.90779 4.03563C5.92941 3.97723 5.93878 3.91501 5.93532 3.85283H6.13198C6.13198 4.13588 6.01202 4.2774 5.77209 4.2774C5.52233 4.2774 5.39844 4.08084 5.39844 3.68772C5.39844 3.25725 5.52823 3.04104 5.79176 3.04104C5.8396 3.04048 5.88701 3.05019 5.93078 3.06952C5.97454 3.08885 6.01365 3.11735 6.04545 3.15308C6.13338 3.29008 6.17092 3.45337 6.15165 3.61499L6.15558 3.69755ZM5.92745 3.52261C5.93165 3.43575 5.92169 3.34878 5.89796 3.26512C5.89214 3.2421 5.87864 3.22177 5.85969 3.20747C5.84073 3.19317 5.81746 3.18577 5.79373 3.18649C5.76756 3.18459 5.74153 3.19176 5.72004 3.2068C5.69855 3.22184 5.6829 3.24382 5.67573 3.26905C5.65434 3.3518 5.64507 3.4372 5.6482 3.52261H5.92745Z" fill="#D6D6D6"/>
<path id="Vector_43" d="M6.96534 2.44141H7.18954V4.26155H6.96731V4.09841C6.95164 4.14841 6.92098 4.19238 6.87947 4.22437C6.83796 4.25637 6.78761 4.27484 6.73525 4.27728C6.67624 4.27712 6.61917 4.25625 6.57399 4.21831C6.5225 4.17581 6.48597 4.11795 6.46976 4.0532C6.44769 3.93596 6.43846 3.81666 6.44223 3.69743C6.43873 3.56203 6.44663 3.42658 6.46583 3.29251C6.47711 3.21869 6.51074 3.1501 6.56219 3.09595C6.59217 3.07029 6.6278 3.0521 6.66617 3.04286C6.70454 3.03363 6.74456 3.03361 6.78294 3.04282C6.82132 3.05202 6.85696 3.07019 6.88696 3.09582C6.91696 3.12146 6.94045 3.15384 6.95551 3.1903L6.96534 2.44141ZM6.96534 3.63846C6.96923 3.53224 6.95998 3.42595 6.93781 3.322C6.93314 3.29528 6.91908 3.2711 6.89818 3.25381C6.87727 3.23652 6.85088 3.22724 6.82375 3.22765C6.79579 3.22802 6.7688 3.23799 6.74732 3.25588C6.72584 3.27378 6.71116 3.29851 6.70575 3.32593C6.68408 3.43259 6.67746 3.54176 6.68609 3.65025C6.68163 3.76309 6.69154 3.87603 6.71559 3.98637C6.7198 4.01363 6.73359 4.03851 6.7545 4.05652C6.7754 4.07453 6.80205 4.0845 6.82965 4.08465C6.88471 4.08465 6.92208 4.05123 6.94568 3.98047C6.96724 3.86783 6.97451 3.75292 6.96731 3.63846H6.96534Z" fill="#D6D6D6"/>
<path id="Vector_44" d="M7.47266 2.68638C7.47313 2.65316 7.48653 2.62144 7.51002 2.59793C7.52157 2.5863 7.53538 2.57716 7.5506 2.57108C7.56582 2.56499 7.58213 2.56209 7.59852 2.56255C7.61459 2.56224 7.63056 2.56522 7.64544 2.57131C7.66032 2.57739 7.6738 2.58645 7.68505 2.59793C7.69704 2.6093 7.70655 2.62303 7.71298 2.63825C7.71941 2.65347 7.72262 2.66986 7.72242 2.68638C7.72143 2.71891 7.70806 2.74984 7.68503 2.77285C7.66201 2.79586 7.63107 2.80923 7.59852 2.81021C7.58194 2.8108 7.56543 2.80776 7.55015 2.80131C7.53486 2.79486 7.52117 2.78515 7.51002 2.77287C7.49827 2.76172 7.48891 2.74831 7.48248 2.73344C7.47606 2.71858 7.47272 2.70257 7.47266 2.68638ZM7.48446 3.05395H7.70865V4.26083H7.49036L7.48446 3.05395Z" fill="#D6D6D6"/>
<path id="Vector_45" d="M8.4469 3.23369H8.30138V4.2617H8.07522V3.23369H7.92969V3.05482H8.07522V2.72656H8.30138V3.05482H8.4469V3.23369Z" fill="#D6D6D6"/>
<path id="Vector_46" d="M9.92888 4.22984C9.86208 4.26249 9.78888 4.27994 9.71452 4.28095C9.64621 4.28243 9.57834 4.26955 9.51533 4.24313C9.45232 4.21672 9.39556 4.17737 9.34873 4.12763C9.2445 4.01756 9.19141 3.78758 9.19141 3.43967C9.19141 3.06227 9.2445 2.80871 9.34873 2.67898C9.39099 2.61852 9.44717 2.5691 9.51255 2.53489C9.57792 2.50068 9.65057 2.48268 9.72436 2.48242C9.79065 2.48515 9.85652 2.49436 9.92102 2.50994V2.72419C9.87271 2.70513 9.82149 2.6945 9.76959 2.69274C9.72146 2.69433 9.67453 2.70816 9.63323 2.73292C9.59194 2.75769 9.55765 2.79257 9.5336 2.83426C9.45166 3.00617 9.41769 3.197 9.43526 3.3866C9.43308 3.51799 9.44031 3.64936 9.4569 3.77972C9.4658 3.86158 9.50019 3.93859 9.55523 3.99987C9.58005 4.02707 9.61049 4.04855 9.64446 4.06281C9.67842 4.07706 9.71508 4.08376 9.75189 4.08242C9.81124 4.07958 9.86942 4.06488 9.92298 4.03918L9.92888 4.22984Z" fill="#D6D6D6"/>
<path id="Vector_47" d="M10.9422 4.2601H10.7161V4.11268C10.6982 4.15841 10.6675 4.19806 10.6278 4.22697C10.5881 4.25588 10.5409 4.27283 10.4919 4.27582C10.453 4.27329 10.4151 4.26209 10.3811 4.24304C10.3471 4.224 10.3177 4.19759 10.2952 4.16575C10.2169 4.01456 10.1854 3.84349 10.2048 3.67435C10.1956 3.50828 10.219 3.34202 10.2736 3.18491C10.2911 3.1388 10.3228 3.09945 10.3642 3.07259C10.4056 3.04573 10.4544 3.03274 10.5037 3.03553C10.5478 3.03308 10.5914 3.04554 10.6276 3.07091C10.667 3.10266 10.7003 3.14128 10.7259 3.18491V3.05322H10.9521L10.9422 4.2601ZM10.5725 4.07926C10.6315 4.07926 10.6689 4.04388 10.6886 3.97508C10.7118 3.85932 10.721 3.7412 10.7161 3.62324C10.7205 3.52036 10.7119 3.41733 10.6905 3.31661C10.6863 3.2911 10.6731 3.26795 10.6532 3.25136C10.6334 3.23477 10.6082 3.22584 10.5824 3.22619C10.5564 3.22556 10.531 3.2335 10.51 3.24878C10.489 3.26406 10.4737 3.28583 10.4663 3.31071C10.4389 3.40781 10.4276 3.50873 10.4329 3.60948C10.4295 3.73058 10.4381 3.85172 10.4585 3.97115C10.4762 4.04388 10.5135 4.07926 10.5725 4.07926Z" fill="#D6D6D6"/>
<path id="Vector_48" d="M11.7555 3.23367C11.6769 3.22806 11.5987 3.24881 11.5333 3.29264C11.488 3.32998 11.4664 3.41057 11.4664 3.53834V4.26168H11.2383V3.0548H11.4664V3.23367C11.4866 3.17815 11.5227 3.12985 11.5703 3.09487C11.6179 3.05988 11.6748 3.03978 11.7339 3.03711H11.7496L11.7555 3.23367Z" fill="#D6D6D6"/>
<path id="Vector_49" d="M12.4538 2.44141H12.678V4.26155H12.4558V4.09841C12.4448 4.13787 12.424 4.17392 12.3954 4.20324C12.3668 4.23255 12.3312 4.25418 12.292 4.26613C12.2528 4.27808 12.2112 4.27997 12.1711 4.27161C12.131 4.26325 12.0936 4.24492 12.0625 4.21831C12.0109 4.17619 11.9749 4.11808 11.9602 4.0532C11.9362 3.93621 11.9263 3.81677 11.9307 3.69743C11.9272 3.56203 11.9351 3.42658 11.9543 3.29251C11.9656 3.21869 11.9992 3.1501 12.0507 3.09595C12.0806 3.07029 12.1163 3.0521 12.1546 3.04286C12.193 3.03363 12.233 3.03361 12.2714 3.04282C12.3098 3.05202 12.3454 3.07019 12.3754 3.09582C12.4054 3.12146 12.4289 3.15384 12.444 3.1903L12.4538 2.44141ZM12.4538 3.63846C12.4577 3.53224 12.4485 3.42595 12.4263 3.322C12.4216 3.29528 12.4076 3.2711 12.3867 3.25381C12.3657 3.23652 12.3394 3.22724 12.3122 3.22765C12.2843 3.22802 12.2573 3.23799 12.2358 3.25588C12.2143 3.27378 12.1996 3.29851 12.1942 3.32593C12.1686 3.43203 12.158 3.5412 12.1628 3.65025C12.159 3.76317 12.1695 3.87612 12.1942 3.98637C12.1984 4.01363 12.2122 4.03851 12.2331 4.05652C12.254 4.07453 12.2807 4.0845 12.3083 4.08465C12.3634 4.08465 12.4027 4.05123 12.4243 3.98047C12.4502 3.86841 12.4608 3.75336 12.4558 3.63846H12.4538Z" fill="#D6D6D6"/>
<path id="Vector_50" d="M4.54928 15.8888C4.55801 16.0254 4.52802 16.1616 4.46275 16.2819C4.43256 16.3226 4.39327 16.3556 4.34803 16.3784C4.30278 16.4011 4.25283 16.413 4.20217 16.413C4.15152 16.413 4.10157 16.4011 4.05632 16.3784C4.01107 16.3556 3.97178 16.3226 3.9416 16.2819C3.87482 16.1621 3.84409 16.0256 3.8531 15.8888C3.84447 15.7522 3.87446 15.616 3.93963 15.4957C3.96957 15.4547 4.00877 15.4213 4.05405 15.3983C4.09933 15.3753 4.14941 15.3633 4.20021 15.3633C4.251 15.3633 4.30108 15.3753 4.34636 15.3983C4.39164 15.4213 4.43085 15.4547 4.46078 15.4957C4.52746 15.6155 4.55818 15.752 4.54928 15.8888ZM4.02026 15.8888C4.01379 15.9903 4.02853 16.0921 4.06353 16.1876C4.07561 16.2139 4.095 16.2362 4.11941 16.2519C4.14381 16.2675 4.17219 16.2759 4.20119 16.2759C4.23019 16.2759 4.25857 16.2675 4.28298 16.2519C4.30738 16.2362 4.32677 16.2139 4.33885 16.1876C4.3737 16.0927 4.38843 15.9916 4.38212 15.8908C4.38836 15.7893 4.37363 15.6876 4.33885 15.592C4.32741 15.565 4.30826 15.5419 4.28377 15.5257C4.25929 15.5094 4.23057 15.5008 4.20119 15.5008C4.17182 15.5008 4.14309 15.5094 4.11861 15.5257C4.09413 15.5419 4.07497 15.565 4.06353 15.592C4.02912 15.687 4.0144 15.788 4.02026 15.8888Z" fill="#D6D6D6"/>
<path id="Vector_51" d="M5.1573 16.3991H4.99211V15.7386C4.99211 15.66 4.99211 15.5945 4.99211 15.5421C4.97993 15.5555 4.96678 15.568 4.95278 15.5794L4.79545 15.7092L4.71875 15.6128L5.01964 15.375H5.1573V16.3991Z" fill="#D6D6D6"/>
<path id="Vector_52" d="M6.18443 16.3976H5.49219V16.2737L5.75571 16.0084C5.83241 15.9278 5.88551 15.8708 5.91107 15.8374C5.93373 15.8086 5.95227 15.7769 5.96614 15.743C5.97824 15.7131 5.98425 15.681 5.98384 15.6487C5.98496 15.6288 5.98187 15.6088 5.97475 15.5902C5.96763 15.5716 5.95666 15.5547 5.94254 15.5406C5.92681 15.5266 5.90844 15.5159 5.88851 15.5092C5.86858 15.5024 5.8475 15.4997 5.82651 15.5013C5.78741 15.5006 5.7486 15.508 5.71245 15.5229C5.66679 15.5418 5.62434 15.5677 5.58658 15.5995L5.50399 15.4914C5.55421 15.4491 5.61057 15.4146 5.67115 15.3892C5.72597 15.3693 5.78391 15.3593 5.84224 15.3597C5.92486 15.3559 6.00602 15.3825 6.07037 15.4344C6.09874 15.4585 6.12127 15.4887 6.13626 15.5228C6.15125 15.5568 6.1583 15.5938 6.1569 15.631C6.15707 15.676 6.14908 15.7206 6.1333 15.7627C6.11324 15.8083 6.08747 15.8513 6.0566 15.8904C6.00367 15.9539 5.94651 16.0136 5.88551 16.0693L5.70655 16.2423H6.1923L6.18443 16.3976Z" fill="#D6D6D6"/>
<path id="Vector_53" d="M6.96741 15.6118C6.96915 15.6714 6.94885 15.7295 6.91037 15.775C6.86751 15.8196 6.81185 15.8498 6.75108 15.8614C6.81961 15.8653 6.88479 15.8924 6.93594 15.9381C6.95661 15.9594 6.97269 15.9846 6.98318 16.0124C6.99367 16.0401 6.99834 16.0697 6.99691 16.0993C6.99968 16.1429 6.99161 16.1866 6.97343 16.2264C6.95524 16.2661 6.9275 16.3008 6.89267 16.3273C6.80574 16.3871 6.70099 16.4156 6.59572 16.4079C6.49712 16.4109 6.39907 16.3921 6.30859 16.3528V16.2074C6.35349 16.2281 6.40024 16.2446 6.44822 16.2565C6.49387 16.2681 6.54076 16.274 6.58785 16.2742C6.65016 16.2784 6.71218 16.2625 6.76485 16.229C6.78492 16.2129 6.80078 16.1921 6.81106 16.1685C6.82133 16.1448 6.82572 16.1191 6.82384 16.0934C6.82546 16.0693 6.82022 16.0453 6.80873 16.0241C6.79725 16.0028 6.77999 15.9853 6.75895 15.9735C6.69757 15.9446 6.63006 15.9311 6.56229 15.9342H6.47379V15.8005H6.56425C6.72748 15.8005 6.80811 15.7435 6.80811 15.6315C6.80916 15.6124 6.806 15.5934 6.79886 15.5758C6.79173 15.5581 6.78078 15.5422 6.76681 15.5293C6.72959 15.503 6.68441 15.4905 6.63898 15.4939C6.6011 15.4943 6.56342 15.4996 6.52689 15.5096C6.48248 15.5261 6.44022 15.5479 6.40102 15.5745L6.32039 15.4605C6.41484 15.3909 6.52954 15.3543 6.64685 15.3563C6.73271 15.3507 6.81796 15.3742 6.88874 15.4231C6.91641 15.4456 6.93807 15.4747 6.9518 15.5076C6.96552 15.5405 6.97088 15.5763 6.96741 15.6118Z" fill="#D6D6D6"/>
<path id="Vector_54" d="M28.6321 16.6543H29.342C29.3741 16.6556 29.4047 16.6682 29.4285 16.6897L29.4718 16.7251C29.4852 16.736 29.496 16.7498 29.5035 16.7654C29.511 16.7811 29.5149 16.7982 29.5151 16.8155V17.7472C29.5149 17.7642 29.511 17.781 29.5035 17.7963C29.496 17.8116 29.4852 17.825 29.4718 17.8356L29.4285 17.873C29.4047 17.8945 29.3741 17.907 29.342 17.9084H28.6321C28.6 17.907 28.5694 17.8945 28.5455 17.873L28.5042 17.8356C28.4905 17.8254 28.4795 17.812 28.4719 17.7966C28.4644 17.7812 28.4606 17.7643 28.461 17.7472V16.8155C28.4606 16.7981 28.4644 16.7809 28.4719 16.7652C28.4794 16.7495 28.4905 16.7357 28.5042 16.7251L28.5455 16.6897C28.5694 16.6682 28.6 16.6556 28.6321 16.6543ZM29.3636 17.7098V16.8528C29.365 16.8411 29.365 16.8292 29.3636 16.8174C29.3636 16.8174 29.3636 16.8056 29.344 16.7978C29.3368 16.7906 29.3281 16.7852 29.3184 16.7821H28.6596C28.6502 16.7857 28.6415 16.791 28.634 16.7978C28.6265 16.8027 28.6204 16.8095 28.6163 16.8174C28.6146 16.8292 28.6146 16.8411 28.6163 16.8528V17.7098C28.6144 17.7209 28.6144 17.7322 28.6163 17.7432C28.6202 17.7519 28.6263 17.7594 28.634 17.7649L28.6596 17.7806H29.3184L29.344 17.7649C29.3526 17.7599 29.3595 17.7523 29.3636 17.7432C29.3651 17.7322 29.3651 17.7209 29.3636 17.7098Z" fill="#D6D6D6"/>
<path id="Vector_55" d="M29.8658 17.016L29.7812 16.9275L30.033 16.6543H30.2434V17.9084H30.1038V16.8017C30.1004 16.7862 30.1004 16.7701 30.1038 16.7545L29.8658 17.016Z" fill="#D6D6D6"/>
<path id="Vector_56" d="M31.2447 16.6543H31.3883L30.4404 18.0695H30.3047L31.2447 16.6543Z" fill="#D6D6D6"/>
<path id="Vector_57" d="M31.4931 17.3541L31.5777 17.2853C31.591 17.2722 31.6083 17.2639 31.6269 17.2617C31.6083 17.2594 31.591 17.2512 31.5777 17.2381L31.5187 17.1929C31.5092 17.1859 31.5016 17.1767 31.4964 17.166C31.4913 17.1554 31.4888 17.1437 31.4892 17.1319V16.8155C31.4893 16.7982 31.4933 16.7811 31.5007 16.7654C31.5082 16.7498 31.519 16.736 31.5325 16.7251L31.5757 16.6897C31.5994 16.6679 31.6301 16.6553 31.6622 16.6543H32.2109C32.2424 16.6556 32.2725 16.6681 32.2955 16.6897L32.3388 16.7251C32.3525 16.7357 32.3636 16.7495 32.3711 16.7652C32.3786 16.7809 32.3823 16.7981 32.382 16.8155V17.1221C32.3822 17.1337 32.3798 17.1451 32.3751 17.1556C32.3703 17.1662 32.3633 17.1755 32.3545 17.183L32.2935 17.2283C32.2804 17.2416 32.263 17.2499 32.2444 17.2518C32.263 17.2538 32.2804 17.2621 32.2935 17.2754L32.3781 17.3442C32.3875 17.3532 32.3948 17.3643 32.3992 17.3766C32.4036 17.3889 32.4052 17.402 32.4037 17.415V17.7373C32.404 17.7545 32.4002 17.7714 32.3927 17.7868C32.3852 17.8022 32.3741 17.8155 32.3604 17.8258L32.3171 17.8631C32.2941 17.8847 32.2641 17.8972 32.2326 17.8985H31.6426C31.6105 17.8972 31.5799 17.8847 31.5561 17.8631L31.5128 17.8258C31.4994 17.8152 31.4886 17.8018 31.4811 17.7865C31.4736 17.7712 31.4697 17.7544 31.4695 17.7373V17.4248C31.4678 17.412 31.469 17.399 31.4731 17.3867C31.4772 17.3744 31.484 17.3633 31.4931 17.3541ZM32.1165 17.3344H31.7547H31.7193C31.7193 17.3344 31.7035 17.3344 31.6878 17.3541L31.6485 17.3855C31.6327 17.3993 31.6249 17.4071 31.6229 17.413C31.6212 17.4254 31.6212 17.438 31.6229 17.4504V17.7059C31.6214 17.717 31.6214 17.7282 31.6229 17.7393C31.627 17.7484 31.6339 17.756 31.6426 17.7609C31.65 17.7678 31.6586 17.7732 31.6681 17.7767H32.209L32.2345 17.7609C32.2423 17.7554 32.2484 17.748 32.2522 17.7393C32.2542 17.7283 32.2542 17.7169 32.2522 17.7059V17.4543C32.2539 17.4419 32.2539 17.4293 32.2522 17.4169L32.2247 17.3894L32.1854 17.358C32.1716 17.3462 32.1618 17.3383 32.1539 17.3383L32.1165 17.3344ZM32.1441 16.7801H31.6858C31.6768 16.7833 31.6687 16.7887 31.6622 16.7958C31.6504 16.7958 31.6445 16.8096 31.6426 16.8155C31.6412 16.8272 31.6412 16.8391 31.6426 16.8509V17.0828C31.6398 17.0964 31.6398 17.1105 31.6426 17.1241C31.6485 17.1342 31.6565 17.1429 31.6662 17.1496L31.7134 17.187C31.7215 17.1943 31.7308 17.2003 31.7409 17.2047H32.1342C32.1443 17.2003 32.1536 17.1943 32.1618 17.187L32.209 17.1496C32.2227 17.1378 32.2326 17.13 32.2345 17.1241C32.2363 17.1104 32.2363 17.0965 32.2345 17.0828V16.8528C32.2363 16.8411 32.2363 16.8292 32.2345 16.8174C32.2305 16.8095 32.2244 16.8027 32.2168 16.7978C32.2094 16.791 32.2007 16.7857 32.1913 16.7821L32.1441 16.7801Z" fill="#D6D6D6"/>
<path id="Vector_58" d="M32.8977 16.6543H33.6096C33.6411 16.6556 33.6711 16.6681 33.6941 16.6897L33.7374 16.7251C33.7512 16.7357 33.7622 16.7495 33.7697 16.7652C33.7772 16.7809 33.781 16.7981 33.7807 16.8155V17.7472C33.781 17.7643 33.7772 17.7812 33.7697 17.7966C33.7622 17.812 33.7511 17.8254 33.7374 17.8356L33.6941 17.873C33.6711 17.8945 33.6411 17.9071 33.6096 17.9084H32.8977C32.8662 17.9071 32.8362 17.8945 32.8131 17.873L32.7698 17.8356C32.7561 17.8254 32.7451 17.812 32.7376 17.7966C32.73 17.7812 32.7263 17.7643 32.7266 17.7472V16.8155C32.7263 16.7981 32.73 16.7809 32.7375 16.7652C32.745 16.7495 32.7561 16.7357 32.7698 16.7251L32.8131 16.6897C32.8362 16.6681 32.8662 16.6556 32.8977 16.6543ZM33.6273 17.7098V16.8528C33.629 16.8411 33.629 16.8292 33.6273 16.8174C33.6232 16.8095 33.6171 16.8027 33.6096 16.7978C33.6021 16.791 33.5935 16.7857 33.584 16.7821H32.9232C32.9138 16.7857 32.9051 16.791 32.8977 16.7978C32.8902 16.8027 32.884 16.8095 32.88 16.8174C32.8786 16.8292 32.8786 16.8411 32.88 16.8528V17.7098C32.8785 17.7209 32.8785 17.7322 32.88 17.7432C32.8838 17.7519 32.8899 17.7594 32.8977 17.7649L32.9232 17.7806H33.584L33.6096 17.7649C33.6173 17.7594 33.6234 17.7519 33.6273 17.7432C33.6292 17.7322 33.6292 17.7209 33.6273 17.7098Z" fill="#D6D6D6"/>
<path id="Vector_59" d="M25.2436 16.9855C25.2424 16.979 25.2424 16.9723 25.2436 16.9658L25.3852 16.5078H25.4521L25.279 17.0326H25.1964L25.0312 16.5117H25.0961L25.2397 16.9697L25.2436 16.9855Z" fill="#D6D6D6"/>
<path id="Vector_60" d="M25.5117 17.0326L25.6907 16.5078H25.7792L25.9621 17.0326H25.8991L25.8598 16.9226H25.612L25.5746 17.0326H25.5117ZM25.7359 16.553C25.7375 16.5601 25.7375 16.5675 25.7359 16.5746L25.6356 16.8754H25.8519L25.7497 16.5746C25.7433 16.5687 25.7386 16.5613 25.7359 16.553Z" fill="#D6D6D6"/>
<path id="Vector_61" d="M26.3987 16.9795V17.0326H26.0742V16.5117H26.1371V16.9835L26.3987 16.9795Z" fill="#D6D6D6"/>
<path id="Vector_62" d="M26.4688 16.5117H26.5317V17.0365H26.4688V16.5117Z" fill="#D6D6D6"/>
<path id="Vector_63" d="M26.6797 17.0326V16.5117H26.957C26.9636 16.5118 26.9702 16.5132 26.9763 16.5159C26.9824 16.5187 26.9878 16.5226 26.9924 16.5274L27.0651 16.5864C27.0703 16.59 27.0745 16.5947 27.0776 16.6001C27.0807 16.6055 27.0825 16.6116 27.0828 16.6179V16.9304C27.0813 16.9428 27.075 16.9541 27.0651 16.9618L26.9924 17.0208C26.9878 17.0257 26.9824 17.0296 26.9763 17.0323C26.9702 17.035 26.9636 17.0364 26.957 17.0365L26.6797 17.0326ZM27.0199 16.9048V16.6356C27.0194 16.6296 27.0175 16.6239 27.0145 16.6188C27.0114 16.6137 27.0072 16.6093 27.0022 16.6061L26.9668 16.5766C26.9624 16.5716 26.9569 16.5676 26.9508 16.5649C26.9447 16.5622 26.9381 16.5608 26.9314 16.5609H26.7348V16.9795H26.9314C26.9447 16.9786 26.9572 16.973 26.9668 16.9638L27.0022 16.9343C27.0072 16.9311 27.0114 16.9267 27.0145 16.9216C27.0175 16.9165 27.0194 16.9108 27.0199 16.9048Z" fill="#D6D6D6"/>
<path id="Vector_64" d="M25.1485 17.4062H25.5418V17.4574H25.3688V17.9291H25.3058V17.4574H25.1406L25.1485 17.4062Z" fill="#D6D6D6"/>
<path id="Vector_65" d="M25.9593 17.4062H26.0223V17.9291H25.9593V17.6913H25.6879V17.933H25.625V17.4062H25.6879V17.6382H25.9593V17.4062Z" fill="#D6D6D6"/>
<path id="Vector_66" d="M26.1562 17.4062H26.4335C26.4466 17.4063 26.4592 17.4112 26.4689 17.42L26.4866 17.4357C26.4923 17.4401 26.4969 17.4458 26.5 17.4523C26.5031 17.4588 26.5046 17.4659 26.5043 17.4731V17.648C26.5043 17.6554 26.5027 17.6628 26.4997 17.6696C26.4966 17.6763 26.4922 17.6824 26.4866 17.6873L26.4689 17.7031C26.4587 17.711 26.4464 17.7157 26.4335 17.7168H26.3922L26.4689 17.8367L26.4807 17.8524C26.4852 17.8569 26.4905 17.8602 26.4965 17.8623L26.5122 17.8741C26.5126 17.8813 26.5126 17.8885 26.5122 17.8957V17.9252H26.4748C26.4697 17.9266 26.4643 17.9266 26.4591 17.9252L26.4434 17.9153C26.4323 17.9082 26.423 17.8988 26.4158 17.8878L26.3175 17.7286H26.2093V17.937H26.1562V17.4062ZM26.2192 17.4574V17.6677H26.4158H26.4257V17.4908V17.4809H26.4158H26.2192V17.4574Z" fill="#D6D6D6"/>
<path id="Vector_67" d="M27.0003 17.4062H27.0633V17.8623C27.0635 17.8695 27.062 17.8766 27.0589 17.8831C27.0558 17.8896 27.0513 17.8952 27.0456 17.8996L27.0259 17.9153C27.0162 17.9241 27.0036 17.929 26.9905 17.9291H26.7447C26.7316 17.929 26.719 17.9241 26.7093 17.9153L26.6896 17.8996C26.6839 17.8952 26.6793 17.8896 26.6762 17.8831C26.6732 17.8766 26.6717 17.8695 26.6719 17.8623V17.4062H26.7348V17.8465C26.7348 17.8465 26.7348 17.8583 26.7348 17.8603H26.9689H26.9787C26.9791 17.8557 26.9791 17.8511 26.9787 17.8465L27.0003 17.4062Z" fill="#D6D6D6"/>
<path id="Vector_68" fill-rule="evenodd" clip-rule="evenodd" d="M27.4375 16.9043V17.5412L27.9174 17.2227L27.4375 16.9043Z" fill="#D6D6D6"/>
</g>
</g>
</g>
<defs>
<linearGradient id="paint0_linear_4083_196461" x1="12.1241" y1="30.2133" x2="26.7801" y2="-7.1697" gradientUnits="userSpaceOnUse">
<stop stop-color="#070707"/>
<stop offset="1" stop-color="#404040"/>
</linearGradient>
<linearGradient id="paint1_linear_4083_196461" x1="38.2525" y1="11.5086" x2="-19.6856" y2="13.4408" gradientUnits="userSpaceOnUse">
<stop/>
<stop offset="0.26" stop-color="#020202"/>
<stop offset="0.38" stop-color="#0A0A0A"/>
<stop offset="0.47" stop-color="#171717"/>
<stop offset="0.55" stop-color="#292929"/>
<stop offset="0.62" stop-color="#414141"/>
<stop offset="0.69" stop-color="#5E5E5E"/>
<stop offset="0.74" stop-color="#818181"/>
<stop offset="0.8" stop-color="#AAAAAA"/>
<stop offset="0.85" stop-color="#D7D7D7"/>
<stop offset="0.89" stop-color="white"/>
</linearGradient>
<linearGradient id="paint2_linear_4083_196461" x1="6.24805" y1="5.20789" x2="6.24805" y2="15.4546" gradientUnits="userSpaceOnUse">
<stop stop-color="#FFCA3F"/>
<stop offset="0.1" stop-color="#CA7C22"/>
<stop offset="0.19" stop-color="#FDDB7A"/>
<stop offset="0.42" stop-color="#FFAD45"/>
<stop offset="0.55" stop-color="#A95F0D"/>
<stop offset="0.66" stop-color="#FFAD45"/>
<stop offset="0.79" stop-color="#FFFF9B"/>
<stop offset="0.87" stop-color="#FFED7C"/>
<stop offset="1" stop-color="#FFCA3F"/>
</linearGradient>
<linearGradient id="paint3_linear_4083_196461" x1="6.24805" y1="2.72725" x2="6.24805" y2="15.5548" gradientUnits="userSpaceOnUse">
<stop stop-color="#FFCA3F"/>
<stop offset="0.1" stop-color="#CA7C22"/>
<stop offset="0.19" stop-color="#FDDB7A"/>
<stop offset="0.42" stop-color="#FFAD45"/>
<stop offset="0.55" stop-color="#A95F0D"/>
<stop offset="0.66" stop-color="#FFAD45"/>
<stop offset="0.79" stop-color="#FFFF9B"/>
<stop offset="0.87" stop-color="#FFED7C"/>
<stop offset="1" stop-color="#FFCA3F"/>
</linearGradient>
<clipPath id="clip0_4083_196461">
<rect width="38.5455" height="24" fill="white"/>
</clipPath>
</defs>
</svg>
