<svg width="28" height="26" viewBox="0 0 28 26" fill="none" xmlns="http://www.w3.org/2000/svg">
<g id="Group 88889894">
<path id="Vector" d="M4 3.99983H24C24.2336 3.99973 24.467 4.01455 24.6987 4.04421C24.6202 3.49282 24.4308 2.96304 24.142 2.48683C23.8531 2.01061 23.4709 1.59782 23.0182 1.27334C22.5655 0.948853 22.0518 0.719402 21.5081 0.598817C20.9643 0.478231 20.4018 0.46901 19.8544 0.571707L3.40625 3.37983H3.3875C2.35505 3.57727 1.43691 4.16141 0.820625 5.01296C1.74912 4.35254 2.86059 3.99836 4 3.99983ZM24 5.49984H4C2.93949 5.50099 1.92275 5.92279 1.17285 6.67269C0.422957 7.42258 0.00115803 8.43933 0 9.49984V21.4998C0.00115803 22.5604 0.422957 23.5771 1.17285 24.327C1.92275 25.0769 2.93949 25.4987 4 25.4999H24C25.0605 25.4987 26.0773 25.0769 26.8271 24.327C27.577 23.5771 27.9988 22.5604 28 21.4998V9.49984C27.9988 8.43933 27.577 7.42258 26.8271 6.67269C26.0773 5.92279 25.0605 5.50099 24 5.49984ZM21.0312 17.4998C20.6357 17.4998 20.249 17.3825 19.9201 17.1628C19.5912 16.943 19.3349 16.6307 19.1835 16.2652C19.0321 15.8998 18.9925 15.4976 19.0697 15.1097C19.1469 14.7217 19.3373 14.3653 19.617 14.0856C19.8967 13.8059 20.2531 13.6154 20.6411 13.5383C21.029 13.4611 21.4312 13.5007 21.7966 13.6521C22.1621 13.8035 22.4744 14.0598 22.6942 14.3887C22.914 14.7176 23.0312 15.1043 23.0312 15.4998C23.0312 16.0303 22.8205 16.539 22.4455 16.9141C22.0704 17.2891 21.5617 17.4998 21.0312 17.4998Z" fill="#1976D2"/>
<path id="Vector_2" d="M0.03125 13.7197V7.50098C0.03125 6.1466 0.78125 3.87598 3.38437 3.3841C5.59375 2.96973 7.78125 2.96973 7.78125 2.96973C7.78125 2.96973 9.21875 3.96973 8.03125 3.96973C6.84375 3.96973 6.875 5.50098 8.03125 5.50098C9.1875 5.50098 8.03125 6.96973 8.03125 6.96973L3.375 12.251L0.03125 13.7197Z" fill="#1976D2"/>
</g>
</svg>
