<svg width="59" height="22" viewBox="0 0 59 22" fill="none" xmlns="http://www.w3.org/2000/svg">
<g id="QIWI_logo 1" clip-path="url(#clip0_4083_196701)">
<path id="Vector" fill-rule="evenodd" clip-rule="evenodd" d="M14.6284 19.1221C16.4656 19.1221 18.4587 19.7594 20.6654 21.7374C20.8865 21.9354 21.1808 21.6893 20.9876 21.4431C18.8195 18.6732 16.8142 18.1459 14.8143 17.7004C12.3675 17.1545 11.1095 15.7616 10.2326 14.2326C10.0583 13.9288 9.97966 13.9824 9.96406 14.3736C9.94439 14.8514 9.97762 15.4846 10.0834 16.1074C9.9844 16.1116 9.88539 16.1109 9.78502 16.1109C6.28571 16.1109 3.44829 13.2399 3.44829 9.69856C3.44829 6.15794 6.28571 3.28763 9.7857 3.28763C13.285 3.28763 16.1224 6.15794 16.1224 9.69856C16.1224 9.95088 16.1102 10.2004 16.0817 10.4445C15.6192 10.3599 14.7085 10.3503 14.0696 10.406C13.8296 10.4273 13.8635 10.5408 14.0452 10.5738C16.1401 10.9567 17.5784 12.2705 17.908 14.6541C17.9148 14.7091 17.9867 14.7249 18.0145 14.6774C18.9052 13.1739 19.3744 11.4524 19.3715 9.69856C19.3715 4.34294 15.0794 0 9.7857 0C4.4913 0 0.199219 4.34225 0.199219 9.69856C0.199219 15.0556 4.4913 19.3985 9.7857 19.3985C11.1895 19.3985 12.5838 19.1221 14.6284 19.1221ZM15.3419 15.6007C15.7684 15.9651 15.898 16.3989 15.6728 16.7049C15.5474 16.8726 15.3439 16.9654 15.0998 16.9654C14.8616 16.9655 14.631 16.8808 14.4481 16.7262C14.0602 16.3831 13.9462 15.8276 14.1992 15.5121C14.2982 15.3883 14.4589 15.3203 14.6515 15.3203C14.8855 15.3203 15.131 15.4199 15.3419 15.6007ZM17.3099 14.674C17.3723 15.0989 17.24 15.2749 17.1064 15.2749C16.9606 15.2749 16.7782 15.103 16.5632 14.7627C16.3503 14.4272 16.2723 14.0422 16.3781 13.8476C16.4473 13.7191 16.5931 13.6627 16.7769 13.7335C17.1329 13.8689 17.2719 14.4203 17.3099 14.674ZM30.5978 12.4534L29.4924 11.1079C29.4664 11.0762 29.45 11.0377 29.4449 10.9968C29.4398 10.9559 29.4464 10.9144 29.4637 10.8772C29.4811 10.8399 29.5086 10.8085 29.543 10.7865C29.5774 10.7646 29.6172 10.753 29.6579 10.7532H31.9697C32.0796 10.4218 32.142 10.0677 32.142 9.69925C32.142 8.01487 30.9023 6.56219 29.2015 6.56219C27.5006 6.56219 26.2609 8.01487 26.2609 9.69925C26.2609 11.3836 27.5006 12.8164 29.2015 12.8164C29.7169 12.8164 30.1889 12.683 30.5985 12.4527L30.5978 12.4534ZM35.5985 14.7256C35.7186 14.8603 35.6202 15.0762 35.4392 15.0762H32.9164C32.8657 15.0763 32.8156 15.065 32.7697 15.0433C32.7237 15.0215 32.6831 14.9898 32.6506 14.9504L32.2233 14.4299C31.3236 15.0215 30.2739 15.3358 29.2015 15.3347C26.1301 15.3347 23.6317 12.8068 23.6317 9.69925C23.6317 6.59175 26.1301 4.06381 29.2015 4.06381C32.2728 4.06381 34.7712 6.59175 34.7712 9.69925C34.7712 10.8199 34.4457 11.8635 33.8862 12.7421L35.5985 14.7256ZM58.9063 4.32438H56.8467C56.7743 4.32456 56.7048 4.35381 56.6536 4.40573C56.6024 4.45765 56.5736 4.52801 56.5734 4.60144V14.7991C56.5734 14.9524 56.6954 15.0762 56.8467 15.0762H58.9063C59.0575 15.0762 59.1802 14.9524 59.1802 14.7991V4.60075C59.1802 4.52709 59.1514 4.45644 59.1 4.40435C59.0486 4.35226 58.9789 4.323 58.9063 4.323V4.32438ZM55.4409 4.32438H53.1378C53.0793 4.32415 53.0223 4.34291 52.9751 4.37792C52.9278 4.41293 52.8929 4.46235 52.8754 4.51894L51.0525 10.5456L49.0485 4.51206C49.0302 4.45702 48.9952 4.40922 48.9486 4.37541C48.902 4.34161 48.8461 4.32351 48.7888 4.32369H47.1815C47.1241 4.32347 47.0681 4.34154 47.0214 4.37534C46.9747 4.40914 46.9396 4.45697 46.9211 4.51206L44.9178 10.5456L43.0949 4.51894C43.0775 4.46222 43.0427 4.41265 42.9954 4.37751C42.9482 4.34237 42.8911 4.32351 42.8325 4.32369H40.5288C40.4855 4.32376 40.4429 4.3342 40.4043 4.35415C40.3658 4.37411 40.3324 4.40301 40.307 4.4385C40.2816 4.47366 40.2649 4.51449 40.2583 4.55756C40.2517 4.60063 40.2554 4.64468 40.269 4.686L43.6531 14.8892C43.6904 15.0019 43.7955 15.0776 43.9128 15.0776H45.7411C45.8591 15.0776 45.9636 15.0019 46.0009 14.8899L47.9852 8.92856L49.9688 14.8892C50.0061 15.0019 50.1112 15.0776 50.2285 15.0776H52.0575C52.1755 15.0776 52.2799 15.0019 52.3172 14.8892L55.7013 4.686C55.7149 4.64471 55.7187 4.60072 55.7122 4.55767C55.7057 4.51462 55.6892 4.47377 55.664 4.4385C55.6384 4.40295 55.605 4.37402 55.5663 4.35407C55.5277 4.33412 55.4849 4.32371 55.4415 4.32369L55.4409 4.32438ZM39.3969 4.60144V14.7991C39.3969 14.9524 39.2749 15.0762 39.1229 15.0762H37.064C36.9915 15.0762 36.9219 15.047 36.8706 14.9951C36.8192 14.9431 36.7903 14.8727 36.7901 14.7991V4.60075C36.7901 4.44744 36.9121 4.323 37.064 4.323H39.1229C39.2742 4.323 39.3969 4.44675 39.3969 4.60075V4.60144Z" fill="#FF8C00"/>
</g>
<defs>
<clipPath id="clip0_4083_196701">
<rect width="59" height="22" fill="white"/>
</clipPath>
</defs>
</svg>
