<svg width="64" height="32" viewBox="0 0 64 32" fill="none" xmlns="http://www.w3.org/2000/svg">
<g id="&#208;&#161;&#208;&#145;&#208;&#159;_&#208;&#187;&#208;&#190;&#208;&#179;&#208;&#190;&#209;&#130;&#208;&#184;&#208;&#191; 1" clip-path="url(#clip0_5410_126171)">
<path id="path60" d="M55.3429 9.13335V16.9568H52.5377V11.4688H49.8365V16.9568H47.0312V9.13281H55.3429V9.13335Z" fill="black"/>
<path id="path62" fill-rule="evenodd" clip-rule="evenodd" d="M41.2709 17.2373C43.7822 17.2373 45.647 15.704 45.647 13.3795C45.647 11.1296 44.2711 9.66881 41.9717 9.66881C40.9105 9.66881 40.0348 10.0408 39.3753 10.6827C39.5327 9.35601 40.6593 8.38748 41.8996 8.38748C42.1859 8.38748 44.341 8.38295 44.341 8.38295L45.5597 6.06055C45.5597 6.06055 42.854 6.12188 41.5962 6.12188C38.7224 6.17175 36.7812 8.77308 36.7812 11.9325C36.7812 15.6133 38.6745 17.2373 41.2709 17.2373ZM41.2862 11.7259C42.2186 11.7259 42.865 12.336 42.865 13.3792C42.865 14.3181 42.2906 15.0917 41.2862 15.0939C40.3253 15.0939 39.6789 14.3771 39.6789 13.3952C39.6789 12.3517 40.3253 11.7259 41.2862 11.7259Z" fill="black"/>
<path id="path64" d="M34.4969 14.3394C34.4969 14.3394 33.8344 14.7197 32.8449 14.7917C31.7074 14.8253 30.6938 14.1098 30.6938 12.8386C30.6938 11.5986 31.5882 10.888 32.8163 10.888C33.5693 10.888 34.5654 11.4077 34.5654 11.4077C34.5654 11.4077 35.2943 10.0757 35.6719 9.40956C34.9805 8.8877 34.0596 8.60156 32.9885 8.60156C30.2852 8.60156 28.1914 10.3568 28.1914 12.8229C28.1914 15.3205 30.1593 17.0349 32.9885 16.9832C33.7792 16.9538 34.8702 16.6773 35.5351 16.252L34.4969 14.3394Z" fill="black"/>
<path id="path66" d="M0 6.96484L3.89141 13.8915V18.1166L0.0045523 25.0296L0 6.96484Z" fill="#5B57A2"/>
<path id="path68" d="M14.9414 11.3712L18.5878 9.14561L26.0504 9.13867L14.9414 15.9157V11.3712Z" fill="#D90751"/>
<path id="path70" d="M14.919 6.92453L14.9396 16.0952L11.0391 13.7085V0L14.919 6.92453Z" fill="#FAB718"/>
<path id="path72" d="M26.0485 9.13893L18.5857 9.14587L14.919 6.92453L11.0391 0L26.0485 9.13893Z" fill="#ED6F26"/>
<path id="path74" d="M14.9396 25.068V20.6187L11.0391 18.2773L11.0412 31.9995L14.9396 25.068Z" fill="#63B22F"/>
<path id="path76" d="M18.5787 22.8627L3.89115 13.8915L0 6.96484L26.0346 22.8536L18.5787 22.8627Z" fill="#1487C9"/>
<path id="path78" d="M11.043 32.0013L14.9408 25.0699L18.5781 22.8645L26.034 22.8555L11.043 32.0013Z" fill="#017F36"/>
<path id="path80" d="M0.00390625 25.0295L11.0722 18.2775L7.35105 16.0039L3.89077 18.1164L0.00390625 25.0295Z" fill="#984995"/>
<path id="path82" d="M30.6933 22.2232C30.6076 22.332 30.4949 22.4141 30.3596 22.4696C30.2209 22.5258 30.0724 22.5544 29.9226 22.5538C29.7736 22.5558 29.6255 22.5311 29.4853 22.4808C29.3594 22.4352 29.2444 22.3642 29.1474 22.2722C29.0516 22.1801 28.9764 22.0689 28.9267 21.9458C28.8729 21.8111 28.8461 21.6671 28.8477 21.5221C28.8477 21.3781 28.8726 21.2448 28.9243 21.1184C28.9739 20.9917 29.0459 20.8832 29.1361 20.792C29.2264 20.6989 29.3346 20.628 29.4561 20.5725C29.5801 20.5192 29.7153 20.4904 29.864 20.4904C30.0241 20.4904 30.1727 20.5104 30.3079 20.5501C30.4432 20.5901 30.5581 20.6568 30.6526 20.7501L30.4882 21.0274C30.4086 20.9557 30.315 20.9012 30.2132 20.8674C30.1163 20.8364 30.0152 20.8207 29.9135 20.821C29.8235 20.821 29.7378 20.8386 29.6546 20.872C29.5725 20.9049 29.4975 20.9531 29.4336 21.0141C29.3684 21.0768 29.3169 21.1524 29.2826 21.236C29.2443 21.3224 29.2264 21.4178 29.2264 21.5242C29.2264 21.633 29.2465 21.7306 29.2847 21.8149C29.3233 21.9016 29.375 21.9749 29.4403 22.0368C29.5057 22.0992 29.5823 22.1456 29.6701 22.1768C29.7582 22.2101 29.8506 22.2256 29.9497 22.2256C30.0712 22.2256 30.1818 22.201 30.2763 22.1544C30.37 22.1093 30.4542 22.0469 30.5243 21.9704L30.6933 22.2232ZM31.1574 22.5072V20.5325H31.5135V22.0037L32.6717 20.5325H33.0278V22.5074H32.6717V21.0362L31.5135 22.5074L31.1574 22.5072ZM35.387 22.2232C35.2994 22.3329 35.1844 22.4178 35.0536 22.4696C34.9147 22.5258 34.7662 22.5544 34.6163 22.5538C34.4674 22.5558 34.3194 22.5311 34.1793 22.4808C34.0533 22.4352 33.9381 22.3642 33.8411 22.2722C33.7453 22.1801 33.6701 22.0689 33.6204 21.9458C33.5666 21.8111 33.5398 21.6671 33.5414 21.5221C33.5414 21.3781 33.5663 21.2448 33.618 21.1184C33.6678 20.9917 33.7398 20.8832 33.8298 20.792C33.9201 20.6989 34.0282 20.628 34.1498 20.5725C34.2782 20.5162 34.4174 20.4882 34.5577 20.4904C34.7178 20.4904 34.8664 20.5104 35.0016 20.5501C35.1369 20.5901 35.2517 20.6568 35.3465 20.7501L35.1819 21.0274C35.1025 20.9556 35.0089 20.9011 34.9071 20.8674C34.8103 20.8364 34.7092 20.8207 34.6075 20.821C34.4285 20.8216 34.2565 20.8907 34.1273 21.0141C34.0626 21.0773 34.0113 21.1527 33.9763 21.236C33.938 21.3224 33.9201 21.4178 33.9201 21.5242C33.9201 21.633 33.9404 21.7306 33.9787 21.8149C34.017 21.9016 34.0687 21.9749 34.134 22.0368C34.1994 22.0992 34.2762 22.1456 34.364 22.1768C34.4519 22.2077 34.5443 22.2256 34.6433 22.2256C34.7652 22.2256 34.8734 22.201 34.97 22.1544C35.0637 22.1093 35.1479 22.0469 35.218 21.9704L35.387 22.2232ZM35.5696 20.5325H37.3969V20.8832H36.6624V22.5072H36.3063V20.8832H35.5717V20.5325H35.5696Z" fill="black"/>
<path id="path84" fill-rule="evenodd" clip-rule="evenodd" d="M39.0602 22.4875C39.1955 22.4454 39.3104 22.3808 39.4094 22.2923L39.3013 22.0171C39.2359 22.075 39.1481 22.1238 39.0423 22.1638C38.9363 22.2038 38.8168 22.2235 38.6862 22.2235C38.4901 22.2235 38.3279 22.1726 38.1993 22.0683C38.0711 21.9638 38.0012 21.8176 37.9854 21.631H39.5267C39.5425 21.5622 39.5492 21.4846 39.5492 21.3936C39.5492 21.2582 39.5243 21.1363 39.4748 21.0254C39.4287 20.9176 39.3613 20.8202 39.2766 20.739C39.1908 20.6584 39.0896 20.5959 38.9791 20.555C38.8634 20.5103 38.7403 20.4876 38.6163 20.4883C38.4494 20.4883 38.303 20.5171 38.1747 20.5704C38.0534 20.6212 37.9437 20.696 37.8523 20.7902C37.7635 20.8838 37.6953 20.9949 37.652 21.1163C37.6044 21.2456 37.5807 21.3824 37.5821 21.52C37.5821 21.6755 37.6091 21.8174 37.6587 21.944C37.7069 22.0667 37.7806 22.1779 37.875 22.2702C37.9674 22.3608 38.0799 22.4299 38.213 22.4787C38.3555 22.529 38.5058 22.5538 38.657 22.5518C38.7939 22.5509 38.9299 22.5291 39.0602 22.4875ZM38.1589 20.9675C38.2692 20.8678 38.4157 20.819 38.6005 20.819C38.774 20.819 38.9138 20.8656 39.0153 20.959C39.1168 21.052 39.1706 21.1808 39.1797 21.3448H37.9629C37.9801 21.1996 38.0498 21.0653 38.1589 20.9675Z" fill="black"/>
<path id="path86" d="M40.0312 20.5332H40.3558L41.1265 21.5119L41.8565 20.5332H42.1719V22.5081H41.816V21.0681L41.1219 21.9844H41.1083L40.3874 21.0679V22.5079H40.0312V20.5332Z" fill="black"/>
<path id="path88" fill-rule="evenodd" clip-rule="evenodd" d="M43.1417 20.54C43.0336 20.5681 42.9303 20.6121 42.8353 20.6706L42.9298 20.9506C43.011 20.9106 43.0921 20.8773 43.1733 20.8485C43.2544 20.8194 43.358 20.8061 43.482 20.8061C43.5811 20.8061 43.6601 20.8218 43.7209 20.8528C43.7817 20.8816 43.8266 20.9261 43.8582 20.9794C43.8898 21.0328 43.9102 21.0992 43.9214 21.1768C43.9327 21.2544 43.9372 21.3386 43.9372 21.4298C43.8644 21.3793 43.7813 21.3451 43.6938 21.3298C43.6092 21.3131 43.5233 21.3042 43.437 21.3032C43.331 21.3032 43.2319 21.3189 43.1371 21.3453C43.0426 21.372 42.9614 21.412 42.8961 21.4653C42.8294 21.5185 42.7755 21.586 42.7384 21.6626C42.6987 21.7466 42.6786 21.8384 42.6797 21.9312C42.6797 22.1242 42.7362 22.2752 42.8487 22.3818C42.9614 22.4882 43.1101 22.5413 43.2948 22.5413C43.4617 22.5413 43.5947 22.5125 43.696 22.4549C43.7975 22.397 43.8786 22.3306 43.9372 22.2552V22.5104H44.2706V21.2989C44.2706 21.0413 44.2144 20.8418 44.0995 20.7018C43.9868 20.5621 43.7862 20.4912 43.5024 20.4912C43.376 20.4912 43.2565 20.5088 43.1417 20.54ZM43.7369 22.14C43.6558 22.1976 43.5498 22.224 43.4191 22.224C43.3042 22.224 43.214 22.1952 43.151 22.1397C43.0878 22.0821 43.0562 22.0066 43.0562 21.9133C43.0562 21.8581 43.0675 21.8114 43.0924 21.7693C43.1173 21.7272 43.151 21.6938 43.1893 21.6672C43.2312 21.6393 43.2777 21.619 43.3267 21.6072C43.3786 21.5938 43.4303 21.5872 43.4844 21.5872C43.6604 21.5872 43.8111 21.6293 43.9351 21.7181V21.9688C43.8767 22.034 43.8101 22.0917 43.7369 22.14ZM47.4144 19.8386C47.4864 19.8056 47.5539 19.7501 47.6171 19.668L47.4232 19.3906C47.3737 19.4573 47.3175 19.5037 47.2543 19.5282C47.1873 19.5543 47.1178 19.5736 47.047 19.5858L46.9795 19.5978C46.9209 19.608 46.8579 19.6192 46.7902 19.6304C46.6815 19.6504 46.5757 19.6831 46.4747 19.728C46.3146 19.7968 46.1863 19.8898 46.0894 20.0074C45.9925 20.125 45.9159 20.2581 45.8639 20.4048C45.8113 20.5533 45.7758 20.7074 45.7582 20.864C45.7399 21.024 45.7311 21.1768 45.7311 21.3232C45.7311 21.512 45.7557 21.6826 45.8053 21.8357C45.8551 21.989 45.9247 22.1176 46.0171 22.2218C46.1095 22.3285 46.2201 22.4085 46.3508 22.4661C46.4814 22.5237 46.6279 22.5525 46.7923 22.5525C46.9434 22.5525 47.0831 22.5237 47.2093 22.4704C47.3309 22.4191 47.4411 22.3445 47.5338 22.2509C47.6238 22.1597 47.6961 22.0509 47.7456 21.929C47.7973 21.8069 47.8222 21.676 47.8222 21.5384C47.8222 21.3898 47.7997 21.2546 47.7569 21.1346C47.7174 21.0202 47.6545 20.9152 47.5721 20.8264C47.4896 20.739 47.3887 20.6707 47.2768 20.6264C47.1534 20.578 47.0218 20.5539 46.8893 20.5554C46.8036 20.5554 46.7203 20.5666 46.6392 20.5888C46.5602 20.6109 46.4845 20.643 46.4137 20.6842C46.345 20.7234 46.2821 20.7719 46.2268 20.8282C46.1727 20.884 46.1277 20.9461 46.0961 21.017H46.087C46.094 20.9261 46.1052 20.833 46.1253 20.7376C46.1456 20.6421 46.1748 20.5509 46.2134 20.4645C46.2517 20.3781 46.3012 20.3002 46.362 20.2293C46.4272 20.1577 46.5071 20.1009 46.5963 20.0629C46.6944 20.0164 46.7982 19.9828 46.9051 19.9632L46.9758 19.9504C47.0462 19.9376 47.1134 19.9253 47.1777 19.912C47.2634 19.8944 47.3421 19.8717 47.4144 19.8386ZM46.1614 21.736C46.1266 21.6239 46.1099 21.5071 46.1119 21.3898C46.127 21.3225 46.1545 21.2586 46.193 21.2013C46.2313 21.1413 46.2809 21.0882 46.3395 21.0413C46.4719 20.938 46.6355 20.8826 46.8036 20.884C47.0133 20.884 47.171 20.9482 47.2813 21.0749C47.3919 21.2034 47.446 21.3632 47.446 21.5562C47.446 21.6517 47.4278 21.7384 47.3964 21.8181C47.366 21.8967 47.32 21.9685 47.2612 22.0291C47.2023 22.0897 47.1319 22.1379 47.054 22.1709C46.9728 22.2064 46.8847 22.2242 46.7856 22.2242C46.6866 22.2242 46.5963 22.2042 46.513 22.1642C46.4303 22.125 46.3571 22.0682 46.2988 21.9978C46.2377 21.9194 46.1912 21.8307 46.1614 21.736ZM50.5533 20.5333H50.1972V22.5082H50.5533V20.5333ZM48.3358 20.5333H48.692V21.1258H49.0211C49.1764 21.1258 49.3025 21.1458 49.404 21.1834C49.5055 21.2213 49.5866 21.2722 49.6474 21.3344C49.7082 21.3965 49.7511 21.4698 49.776 21.5517C49.8006 21.6338 49.8143 21.7181 49.8143 21.8069C49.8143 21.8957 49.8006 21.9802 49.7714 22.0645C49.7444 22.1488 49.697 22.2218 49.6338 22.2885C49.5708 22.3552 49.4852 22.4085 49.377 22.4485C49.2688 22.4882 49.1381 22.5104 48.9804 22.5104H48.3337V20.5333H48.3358ZM48.692 21.4562V22.1797H48.9512C49.1293 22.1797 49.2554 22.1488 49.3274 22.0864C49.3997 22.0242 49.4356 21.9357 49.4356 21.8181C49.4356 21.6981 49.3973 21.6074 49.3253 21.545C49.2508 21.4829 49.1269 21.4517 48.9557 21.4517H48.692V21.4562Z" fill="black"/>
<path id="path90" d="M52.9081 22.2232C52.8224 22.332 52.7097 22.4141 52.5745 22.4696C52.4357 22.5258 52.2872 22.5544 52.1374 22.5538C51.9885 22.5558 51.8403 22.5311 51.7002 22.4808C51.5742 22.4353 51.4592 22.3643 51.3622 22.2722C51.2665 22.18 51.1912 22.0688 51.1413 21.9458C51.0877 21.811 51.061 21.6671 51.0626 21.5221C51.0626 21.3781 51.0872 21.2448 51.1392 21.1184C51.1887 20.9917 51.2607 20.8832 51.351 20.792C51.4412 20.6989 51.5491 20.628 51.671 20.5725C51.7994 20.5162 51.9385 20.4881 52.0788 20.4904C52.2387 20.4904 52.3876 20.5104 52.5228 20.5501C52.658 20.5901 52.7729 20.6568 52.8674 20.7501L52.703 21.0274C52.6235 20.9557 52.5298 20.9012 52.428 20.8674C52.3312 20.8364 52.2301 20.8207 52.1283 20.821C52.0384 20.821 51.9527 20.8386 51.8691 20.872C51.7871 20.9049 51.7122 20.9531 51.6485 21.0141C51.5837 21.0772 51.5323 21.1527 51.4974 21.236C51.4592 21.3224 51.4412 21.4178 51.4412 21.5242C51.4412 21.633 51.4613 21.7306 51.4996 21.8149C51.5379 21.9016 51.5898 21.9749 51.6552 22.0368C51.7205 22.0992 51.7971 22.1456 51.8849 22.1768C51.973 22.2077 52.0654 22.2256 52.1645 22.2256C52.2861 22.2256 52.3943 22.201 52.4912 22.1544C52.5849 22.1093 52.669 22.0469 52.7392 21.9704L52.9081 22.2232ZM53.0905 20.5325H54.9181V20.8832H54.1833V22.5072H53.8274V20.8832H53.0929V20.5325H53.0905Z" fill="black"/>
<path id="path92" fill-rule="evenodd" clip-rule="evenodd" d="M55.6608 20.533H55.3047V23.3863H55.6608V22.4167C55.7329 22.4634 55.8186 22.4967 55.9176 22.5188C56.0167 22.541 56.1204 22.5519 56.2264 22.5519C56.3841 22.5519 56.526 22.5231 56.6546 22.47C56.7779 22.4175 56.8896 22.3414 56.9834 22.246C57.0758 22.1503 57.1457 22.0394 57.1952 21.9084C57.2448 21.7778 57.2697 21.6378 57.2697 21.4892C57.2697 21.3426 57.2472 21.2074 57.2043 21.0852C57.164 20.9692 57.1012 20.8622 57.0196 20.7703C56.9394 20.6806 56.84 20.6101 56.7288 20.5639C56.6071 20.5118 56.4758 20.4861 56.3434 20.4884C56.2039 20.4884 56.0732 20.5151 55.9492 20.5684C55.8253 20.6218 55.7283 20.6858 55.6608 20.7658V20.533ZM55.9088 20.8991C56.0103 20.8458 56.1206 20.8191 56.2401 20.8191C56.3437 20.8191 56.4361 20.8346 56.5196 20.8679C56.6008 20.9012 56.6682 20.9479 56.7247 21.01C56.781 21.0722 56.8238 21.1434 56.8509 21.2274C56.8801 21.3116 56.8937 21.4028 56.8937 21.5026C56.8937 21.6092 56.8755 21.7044 56.8442 21.7932C56.8146 21.8774 56.7677 21.9545 56.7065 22.0196C56.645 22.0839 56.5706 22.1346 56.488 22.1682C56.396 22.2065 56.297 22.2254 56.1972 22.2236C56.1005 22.2236 56.0103 22.2127 55.9246 22.1906C55.8308 22.1651 55.7418 22.1246 55.6611 22.0706V21.0919C55.724 21.0167 55.8076 20.9524 55.9088 20.8991ZM60.0008 20.5327H59.6446V22.5076H60.0008V20.5327ZM57.7811 20.5327H58.1373V21.1252H58.4661C58.6217 21.1252 58.7478 21.1452 58.8493 21.1828C58.9508 21.2207 59.032 21.2716 59.0927 21.3338C59.1535 21.3959 59.1964 21.4692 59.221 21.5511C59.2459 21.6332 59.2593 21.7175 59.2593 21.8063C59.2593 21.8951 59.2459 21.9796 59.2167 22.0639C59.1897 22.1482 59.1423 22.2212 59.0791 22.2879C59.0162 22.3546 58.9305 22.4079 58.8223 22.4479C58.7141 22.4876 58.5834 22.5098 58.4257 22.5098H57.779V20.5327H57.7811ZM58.1397 21.4556V22.1791H58.3989C58.5767 22.1791 58.7031 22.1482 58.7751 22.0858C58.8472 22.0236 58.8833 21.9351 58.8833 21.8175C58.8833 21.6975 58.845 21.6068 58.773 21.5444C58.6986 21.4823 58.5746 21.4511 58.4035 21.4511H58.1397V21.4556Z" fill="black"/>
<path id="path94" d="M61.711 21.4852L62.4726 22.5081H62.0355L61.4472 21.7092L60.8501 22.5081H60.4355L61.1926 21.5028L60.4805 20.5332H60.9178L61.4609 21.2788L62.0128 20.5332H62.4276L61.711 21.4852ZM30.4294 24.9489H29.3366V26.5953H28.9805V24.6207H30.7853V26.5953H30.4294V24.9489ZM32.8065 24.9711H32.1036L32.0809 25.3039C32.0562 25.5857 32.0225 25.8121 31.9751 25.9849C31.9277 26.1583 31.869 26.2913 31.8016 26.3844C31.7341 26.4777 31.6551 26.542 31.5648 26.5732C31.4717 26.6068 31.3733 26.6234 31.2743 26.622L31.2472 26.2801C31.2855 26.2823 31.3305 26.2735 31.3801 26.2513C31.4299 26.2292 31.4794 26.1804 31.5265 26.1073C31.5739 26.0316 31.6168 25.9252 31.6551 25.7876C31.6934 25.6479 31.7183 25.466 31.7317 25.2372L31.7678 24.6225H33.1627V26.5975H32.8065V24.9711Z" fill="black"/>
<path id="path96" fill-rule="evenodd" clip-rule="evenodd" d="M34.1221 24.623C34.007 24.654 33.9034 24.6982 33.8155 24.7537L33.9103 25.0334C33.9915 24.9934 34.0726 24.9601 34.1535 24.9313C34.2346 24.9025 34.3385 24.8892 34.4622 24.8892C34.5616 24.8892 34.6403 24.9046 34.7011 24.9356C34.7621 24.9646 34.8071 25.0089 34.8387 25.0622C34.87 25.1156 34.8904 25.1822 34.9016 25.2596C34.9129 25.3374 34.9174 25.4217 34.9174 25.5126C34.8446 25.4621 34.7615 25.4281 34.674 25.4129C34.5894 25.3961 34.5035 25.3872 34.4172 25.3862C34.3115 25.3862 34.2121 25.4017 34.1176 25.4284C34.0228 25.455 33.9416 25.495 33.8763 25.5484C33.8096 25.6016 33.7557 25.669 33.7186 25.7457C33.679 25.8296 33.659 25.9215 33.6602 26.0142C33.6602 26.207 33.7164 26.3582 33.8292 26.4646C33.9416 26.571 34.0905 26.6244 34.2753 26.6244C34.4421 26.6244 34.5749 26.5956 34.6764 26.5377C34.7777 26.4801 34.8588 26.4134 34.9174 26.338V26.5932H35.2511V25.3817C35.2511 25.1244 35.1946 24.9246 35.0797 24.7849C34.967 24.6449 34.7664 24.5742 34.4826 24.5742C34.3608 24.5743 34.2396 24.5909 34.1221 24.623ZM34.7193 26.2225C34.6384 26.2804 34.5324 26.307 34.4017 26.307C34.2844 26.307 34.1966 26.2782 34.1336 26.2225C34.0704 26.1649 34.0389 26.0894 34.0389 25.9964C34.0389 25.9409 34.0501 25.8942 34.075 25.8521C34.0996 25.81 34.1336 25.7766 34.1719 25.75C34.2102 25.7233 34.2574 25.7033 34.3093 25.69C34.3608 25.6767 34.4138 25.6701 34.467 25.6702C34.6427 25.6702 34.7937 25.7124 34.9177 25.8009V26.0516C34.8592 26.1168 34.7925 26.1742 34.7193 26.2225Z" fill="black"/>
<path id="path98" d="M35.6016 24.6211H37.4292V24.9715H36.6944V26.5958H36.3385V24.9718H35.604V24.6211H35.6016Z" fill="black"/>
<path id="path100" fill-rule="evenodd" clip-rule="evenodd" d="M39.0918 26.5736C39.227 26.5315 39.3419 26.467 39.4409 26.3784L39.3328 26.1032C39.2674 26.1611 39.1796 26.2099 39.0735 26.2499C38.9678 26.2899 38.8483 26.3096 38.7177 26.3096C38.5216 26.3096 38.3594 26.2587 38.2308 26.1544C38.1023 26.0502 38.0327 25.9038 38.0169 25.7171H39.5582C39.5738 25.6486 39.5807 25.5707 39.5807 25.4798C39.5807 25.3446 39.5558 25.2224 39.5063 25.1115C39.4601 25.0038 39.3927 24.9065 39.3079 24.8254C39.2222 24.7447 39.1211 24.682 39.0106 24.6411C38.8949 24.5964 38.7719 24.5738 38.6478 24.5744C38.4809 24.5744 38.3345 24.6032 38.2062 24.6566C38.0849 24.7073 37.9752 24.782 37.8838 24.8763C37.795 24.97 37.7267 25.0811 37.6832 25.2024C37.6357 25.3317 37.6121 25.4685 37.6133 25.6062C37.6133 25.7616 37.6404 25.9035 37.6899 26.0302C37.7397 26.1566 37.8139 26.2654 37.9063 26.3563C37.9987 26.4472 38.1114 26.516 38.2445 26.5648C38.3869 26.6153 38.5371 26.6401 38.6882 26.6382C38.8213 26.6382 38.9565 26.6158 39.0918 26.5736ZM38.1883 25.0515C38.2986 24.9518 38.4451 24.903 38.6298 24.903C38.8058 24.903 38.9431 24.9518 39.0446 25.0427C39.1458 25.136 39.1999 25.2646 39.209 25.4288H37.9922C38.0094 25.2835 38.0791 25.1494 38.1883 25.0515ZM39.7543 24.619H40.2049L40.8921 25.571L40.1575 26.5936H39.7205L40.4909 25.5707L39.7543 24.619ZM40.9799 24.619H41.336V26.5936H40.9799V24.619ZM42.6091 26.5936L41.825 25.5707L42.5574 24.6187H42.1156L41.4239 25.5707L42.1675 26.5936H42.6091ZM44.2361 26.5736C44.3714 26.5315 44.4862 26.467 44.5853 26.3784L44.4771 26.1032C44.4118 26.1611 44.324 26.2099 44.2182 26.2499C44.1121 26.2899 43.9927 26.3096 43.862 26.3096C43.666 26.3096 43.5037 26.2587 43.3752 26.1544C43.2469 26.0502 43.177 25.9038 43.1612 25.7171H44.7026C44.7184 25.6486 44.7251 25.5707 44.7251 25.4798C44.7251 25.3446 44.7005 25.2224 44.6507 25.1115C44.6045 25.0039 44.5371 24.9066 44.4525 24.8254C44.3667 24.7447 44.2656 24.682 44.155 24.6411C44.0393 24.5964 43.9162 24.5738 43.7921 24.5744C43.6256 24.5744 43.4791 24.6032 43.3506 24.6566C43.2293 24.7073 43.1197 24.7821 43.0284 24.8763C42.9395 24.9699 42.8711 25.081 42.8279 25.2024C42.7803 25.3317 42.7566 25.4685 42.758 25.6062C42.758 25.7616 42.785 25.9035 42.8346 26.0302C42.8841 26.1566 42.9585 26.2654 43.0509 26.3563C43.1433 26.4472 43.2558 26.516 43.3889 26.5648C43.5313 26.6153 43.6817 26.6401 43.8328 26.6382C43.9698 26.6372 44.1058 26.6154 44.2361 26.5736ZM43.3326 25.0515C43.4432 24.9518 43.5897 24.903 43.7745 24.903C43.948 24.903 44.0875 24.9518 44.189 25.0427C44.2905 25.136 44.3446 25.2646 44.3534 25.4288H43.1366C43.1538 25.2835 43.2235 25.1494 43.3326 25.0515ZM46.1698 23.9555C45.9601 23.9555 45.8452 23.84 45.8273 23.6094H45.4915C45.4915 23.6979 45.5073 23.7779 45.5365 23.8534C45.5659 23.9288 45.6088 23.9931 45.665 24.0464C45.7212 24.0998 45.7935 24.1419 45.8768 24.175C45.9601 24.2083 46.057 24.2238 46.1674 24.2238C46.2689 24.2238 46.3591 24.2083 46.4402 24.175C46.5214 24.144 46.5889 24.0998 46.6475 24.0464C46.7037 23.9931 46.749 23.9288 46.7803 23.8534C46.8119 23.7779 46.8277 23.6979 46.8277 23.6094H46.4943C46.4785 23.84 46.3679 23.9555 46.1698 23.9555ZM45.2074 24.6187V26.5936H45.5635L46.7217 25.1224V26.5936H47.0778V24.6187H46.7217L45.5635 26.0899V24.6187H45.2074Z" fill="black"/>
</g>
<defs>
<clipPath id="clip0_5410_126171">
<rect width="64" height="32" fill="white"/>
</clipPath>
</defs>
</svg>
