<svg width="17" height="17" viewBox="0 0 17 17" fill="none" xmlns="http://www.w3.org/2000/svg">
<path d="M1.4262 0.144995C1.2743 0.150688 1.13322 0.225022 1.0427 0.347236C0.952293 0.469339 0.922272 0.626043 0.961334 0.772912L2.62738 7.01748L9.98428 8.14353L2.62852 9.26858L0.961476 15.5149C0.927881 15.6398 0.944065 15.7729 1.00657 15.8861C1.06918 15.9994 1.17309 16.0841 1.29675 16.1222C1.42031 16.1604 1.55391 16.1493 1.66943 16.091L16.6701 8.59066C16.7812 8.53485 16.8673 8.43987 16.9121 8.32391C16.9568 8.20805 16.9568 8.0797 16.9121 7.96383C16.8673 7.84798 16.7812 7.75289 16.6701 7.69708L1.66943 0.196744C1.59409 0.159242 1.51038 0.141495 1.42633 0.144955L1.4262 0.144995Z" fill="#75ADE4"/>
</svg>
