<svg width="42" height="52" viewBox="0 0 42 52" fill="none" xmlns="http://www.w3.org/2000/svg">
<path d="M21 16.6673C21.6188 16.6673 22.2123 16.9132 22.6499 17.3507C23.0875 17.7883 23.3333 18.3818 23.3333 19.0007C23.3333 19.6195 23.0875 20.213 22.6499 20.6506C22.2123 21.0882 21.6188 21.334 21 21.334C20.3812 21.334 19.7877 21.0882 19.3501 20.6506C18.9125 20.213 18.6667 19.6195 18.6667 19.0007C18.6667 18.3818 18.9125 17.7883 19.3501 17.3507C19.7877 16.9132 20.3812 16.6673 21 16.6673ZM42 23.6673C42 36.6173 33.04 48.7273 21 51.6673C8.96 48.7273 0 36.6173 0 23.6673V9.66732L21 0.333984L42 9.66732V23.6673ZM21 12.0007C19.1435 12.0007 17.363 12.7381 16.0503 14.0509C14.7375 15.3637 14 17.1441 14 19.0007C14 22.0573 15.9367 24.6473 18.6667 25.604V40.0006H23.3333V35.334H28V30.6673H23.3333V25.604C26.0633 24.6473 28 22.0573 28 19.0007C28 17.1441 27.2625 15.3637 25.9497 14.0509C24.637 12.7381 22.8565 12.0007 21 12.0007Z" fill="#0D9A0B"/>
</svg>
