<svg width="19" height="17" viewBox="0 0 19 17" fill="none" xmlns="http://www.w3.org/2000/svg">
<path d="M18.125 3.35312H9.71094L6.96172 0.723437C6.92674 0.69069 6.88073 0.672286 6.83281 0.671875H0.875C0.460156 0.671875 0.125 1.00703 0.125 1.42188V15.2969C0.125 15.7117 0.460156 16.0469 0.875 16.0469H18.125C18.5398 16.0469 18.875 15.7117 18.875 15.2969V4.10312C18.875 3.68828 18.5398 3.35312 18.125 3.35312ZM12.3125 9.88281C12.3125 9.97188 12.2328 10.0469 12.1367 10.0469H10.1562V12.0367C10.1562 12.1281 10.0813 12.2031 9.99219 12.2031H9.00781C8.91875 12.2031 8.84375 12.1281 8.84375 12.0367V10.0469H6.86328C6.76719 10.0469 6.6875 9.97188 6.6875 9.88281V8.89844C6.6875 8.80937 6.76719 8.73438 6.86328 8.73438H8.84375V6.74453C8.84375 6.65313 8.91875 6.57812 9.00781 6.57812H9.99219C10.0813 6.57812 10.1562 6.65313 10.1562 6.74453V8.73438H12.1367C12.2328 8.73438 12.3125 8.80937 12.3125 8.89844V9.88281Z" fill="#1976D2"/>
</svg>
